<mxfile host="app.diagrams.net" agent="Mozilla/5.0 (Windows NT 10.0; Win64; x64) AppleWebKit/537.36 (KHTML, like Gecko) Chrome/137.0.0.0 Safari/537.36" version="28.0.6">
  <diagram name="หน้า-1" id="rL8CQ0989WKviHOLpEyN">
    <mxGraphModel dx="5822" dy="6780" grid="1" gridSize="10" guides="1" tooltips="1" connect="1" arrows="1" fold="1" page="1" pageScale="1" pageWidth="1654" pageHeight="2336" math="0" shadow="0">
      <root>
        <mxCell id="0" />
        <mxCell id="1" parent="0" />
        <mxCell id="yrHQgA5anK2MkfYK_7r1-1" value="&lt;font data-font-src=&quot;https://fonts.googleapis.com/css?family=Sarabun&quot; face=&quot;Sarabun&quot;&gt;เริ่มต้น&lt;/font&gt;" style="ellipse;whiteSpace=wrap;html=1;" parent="1" vertex="1">
          <mxGeometry x="602" y="-3410" width="130" height="50" as="geometry" />
        </mxCell>
        <mxCell id="yrHQgA5anK2MkfYK_7r1-2" value="เงินที่อยู่ในตู้" style="shape=parallelogram;perimeter=parallelogramPerimeter;whiteSpace=wrap;html=1;fixedSize=1;size=20;" parent="1" vertex="1">
          <mxGeometry x="593.5" y="-3290" width="140" height="70" as="geometry" />
        </mxCell>
        <mxCell id="yrHQgA5anK2MkfYK_7r1-3" value="" style="endArrow=classic;html=1;rounded=0;" parent="1" edge="1">
          <mxGeometry width="50" height="50" relative="1" as="geometry">
            <mxPoint x="663.0699999999999" y="-3220" as="sourcePoint" />
            <mxPoint x="663.5699999999999" y="-3170" as="targetPoint" />
          </mxGeometry>
        </mxCell>
        <mxCell id="yrHQgA5anK2MkfYK_7r1-4" value="1000 บาท = 1 ใบ&lt;span style=&quot;color: rgba(0, 0, 0, 0); font-family: monospace; font-size: 0px; text-align: start; text-wrap-mode: nowrap;&quot;&gt;%3CmxGraphModel%3E%3Croot%3E%3CmxCell%20id%3D%220%22%2F%3E%3CmxCell%20id%3D%221%22%20parent%3D%220%22%2F%3E%3CmxCell%20id%3D%222%22%20value%3D%22%22%20style%3D%22endArrow%3Dclassic%3Bhtml%3D1%3Brounded%3D0%3B%22%20edge%3D%221%22%20parent%3D%221%22%3E%3CmxGeometry%20width%3D%2250%22%20height%3D%2250%22%20relative%3D%221%22%20as%3D%22geometry%22%3E%3CmxPoint%20x%3D%22-400%22%20y%3D%2270%22%20as%3D%22sourcePoint%22%2F%3E%3CmxPoint%20x%3D%22-399.5%22%20y%3D%22120%22%20as%3D%22targetPoint%22%2F%3E%3C%2FmxGeometry%3E%3C%2FmxCell%3E%3C%2Froot%3E%3C%2FmxGraphModel%3E&lt;/span&gt;&lt;span style=&quot;color: rgba(0, 0, 0, 0); font-family: monospace; font-size: 0px; text-align: start; text-wrap-mode: nowrap;&quot;&gt;%3CmxGraphModel%3E%3Croot%3E%3CmxCell%20id%3D%220%22%2F%3E%3CmxCell%20id%3D%221%22%20parent%3D%220%22%2F%3E%3CmxCell%20id%3D%222%22%20value%3D%22%22%20style%3D%22endArrow%3Dclassic%3Bhtml%3D1%3Brounded%3D0%3B%22%20edge%3D%221%22%20parent%3D%221%22%3E%3CmxGeometry%20width%3D%2250%22%20height%3D%2250%22%20relative%3D%221%22%20as%3D%22geometry%22%3E%3CmxPoint%20x%3D%22-400%22%20y%3D%2270%22%20as%3D%22sourcePoint%22%2F%3E%3CmxPoint%20x%3D%22-399.5%22%20y%3D%22120%22%20as%3D%22targetPoint%22%2F%3E%3C%2FmxGeometry%3E%3C%2FmxCell%3E%3C%2Froot%3E%3C%2FmxGraphModel%3E&lt;/span&gt;" style="rounded=0;whiteSpace=wrap;html=1;" parent="1" vertex="1">
          <mxGeometry x="603.5" y="-3170" width="120" height="60" as="geometry" />
        </mxCell>
        <mxCell id="yrHQgA5anK2MkfYK_7r1-5" value="500 บาท = 1 ใบ&lt;span style=&quot;color: rgba(0, 0, 0, 0); font-family: monospace; font-size: 0px; text-align: start; text-wrap-mode: nowrap;&quot;&gt;%3CmxGraphModel%3E%3Croot%3E%3CmxCell%20id%3D%220%22%2F%3E%3CmxCell%20id%3D%221%22%20parent%3D%220%22%2F%3E%3CmxCell%20id%3D%222%22%20value%3D%22%22%20style%3D%22endArrow%3Dclassic%3Bhtml%3D1%3Brounded%3D0%3B%22%20edge%3D%221%22%20parent%3D%221%22%3E%3CmxGeometry%20width%3D%2250%22%20height%3D%2250%22%20relative%3D%221%22%20as%3D%22geometry%22%3E%3CmxPoint%20x%3D%22-400%22%20y%3D%2270%22%20as%3D%22sourcePoint%22%2F%3E%3CmxPoint%20x%3D%22-399.5%22%20y%3D%22120%22%20as%3D%22targetPoint%22%2F%3E%3C%2FmxGeometry%3E%3C%2FmxCell%3E%3C%2Froot%3E%3C%2FmxGraphModel%3E&lt;/span&gt;&lt;span style=&quot;color: rgba(0, 0, 0, 0); font-family: monospace; font-size: 0px; text-align: start; text-wrap-mode: nowrap;&quot;&gt;%3CmxGraphModel%3E%3Croot%3E%3CmxCell%20id%3D%220%22%2F%3E%3CmxCell%20id%3D%221%22%20parent%3D%220%22%2F%3E%3CmxCell%20id%3D%222%22%20value%3D%22%22%20style%3D%22endArrow%3Dclassic%3Bhtml%3D1%3Brounded%3D0%3B%22%20edge%3D%221%22%20parent%3D%221%22%3E%3CmxGeometry%20width%3D%2250%22%20height%3D%2250%22%20relative%3D%221%22%20as%3D%22geometry%22%3E%3CmxPoint%20x%3D%22-400%22%20y%3D%2270%22%20as%3D%22sourcePoint%22%2F%3E%3CmxPoint%20x%3D%22-399.5%22%20y%3D%22120%22%20as%3D%22targetPoint%22%2F%3E%3C%2FmxGeometry%3E%3C%2FmxCell%3E%3C%2Froot%3E%3C%2FmxGraphModel%3E&lt;/span&gt;" style="rounded=0;whiteSpace=wrap;html=1;" parent="1" vertex="1">
          <mxGeometry x="600" y="-3060" width="120" height="60" as="geometry" />
        </mxCell>
        <mxCell id="yrHQgA5anK2MkfYK_7r1-6" value="" style="endArrow=classic;html=1;rounded=0;" parent="1" edge="1">
          <mxGeometry width="50" height="50" relative="1" as="geometry">
            <mxPoint x="665.5699999999999" y="-3110" as="sourcePoint" />
            <mxPoint x="666.0699999999999" y="-3060" as="targetPoint" />
          </mxGeometry>
        </mxCell>
        <mxCell id="yrHQgA5anK2MkfYK_7r1-7" value="100 บาท = 3 ใบ&lt;span style=&quot;color: rgba(0, 0, 0, 0); font-family: monospace; font-size: 0px; text-align: start; text-wrap-mode: nowrap;&quot;&gt;%3CmxGraphModel%3E%3Croot%3E%3CmxCell%20id%3D%220%22%2F%3E%3CmxCell%20id%3D%221%22%20parent%3D%220%22%2F%3E%3CmxCell%20id%3D%222%22%20value%3D%22%22%20style%3D%22endArrow%3Dclassic%3Bhtml%3D1%3Brounded%3D0%3B%22%20edge%3D%221%22%20parent%3D%221%22%3E%3CmxGeometry%20width%3D%2250%22%20height%3D%2250%22%20relative%3D%221%22%20as%3D%22geometry%22%3E%3CmxPoint%20x%3D%22-400%22%20y%3D%2270%22%20as%3D%22sourcePoint%22%2F%3E%3CmxPoint%20x%3D%22-399.5%22%20y%3D%22120%22%20as%3D%22targetPoint%22%2F%3E%3C%2FmxGeometry%3E%3C%2FmxCell%3E%3C%2Froot%3E%3C%2FmxGraphModel%3E&lt;/span&gt;&lt;span style=&quot;color: rgba(0, 0, 0, 0); font-family: monospace; font-size: 0px; text-align: start; text-wrap-mode: nowrap;&quot;&gt;%3CmxGraphModel%3E%3Croot%3E%3CmxCell%20id%3D%220%22%2F%3E%3CmxCell%20id%3D%221%22%20parent%3D%220%22%2F%3E%3CmxCell%20id%3D%222%22%20value%3D%22%22%20style%3D%22endArrow%3Dclassic%3Bhtml%3D1%3Brounded%3D0%3B%22%20edge%3D%221%22%20parent%3D%221%22%3E%3CmxGeometry%20width%3D%2250%22%20height%3D%2250%22%20relative%3D%221%22%20as%3D%22geometry%22%3E%3CmxPoint%20x%3D%22-400%22%20y%3D%2270%22%20as%3D%22sourcePoint%22%2F%3E%3CmxPoint%20x%3D%22-399.5%22%20y%3D%22120%22%20as%3D%22targetPoint%22%2F%3E%3C%2FmxGeometry%3E%3C%2FmxCell%3E%3C%2Froot%3E%3C%2FmxGraphModel%3E&lt;/span&gt;" style="rounded=0;whiteSpace=wrap;html=1;" parent="1" vertex="1">
          <mxGeometry x="602" y="-2950" width="120" height="60" as="geometry" />
        </mxCell>
        <mxCell id="yrHQgA5anK2MkfYK_7r1-8" value="" style="endArrow=classic;html=1;rounded=0;" parent="1" edge="1">
          <mxGeometry width="50" height="50" relative="1" as="geometry">
            <mxPoint x="661.5699999999999" y="-3000" as="sourcePoint" />
            <mxPoint x="662.0699999999999" y="-2950" as="targetPoint" />
          </mxGeometry>
        </mxCell>
        <mxCell id="yrHQgA5anK2MkfYK_7r1-9" value="50 บาท = 8 ใบ&lt;span style=&quot;color: rgba(0, 0, 0, 0); font-family: monospace; font-size: 0px; text-align: start; text-wrap-mode: nowrap;&quot;&gt;%3CmxGraphModel%3E%3Croot%3E%3CmxCell%20id%3D%220%22%2F%3E%3CmxCell%20id%3D%221%22%20parent%3D%220%22%2F%3E%3CmxCell%20id%3D%222%22%20value%3D%22%22%20style%3D%22endArrow%3Dclassic%3Bhtml%3D1%3Brounded%3D0%3B%22%20edge%3D%221%22%20parent%3D%221%22%3E%3CmxGeometry%20width%3D%2250%22%20height%3D%2250%22%20relative%3D%221%22%20as%3D%22geometry%22%3E%3CmxPoint%20x%3D%22-400%22%20y%3D%2270%22%20as%3D%22sourcePoint%22%2F%3E%3CmxPoint%20x%3D%22-399.5%22%20y%3D%22120%22%20as%3D%22targetPoint%22%2F%3E%3C%2FmxGeometry%3E%3C%2FmxCell%3E%3C%2Froot%3E%3C%2FmxGraphModel%3E&lt;/span&gt;&lt;span style=&quot;color: rgba(0, 0, 0, 0); font-family: monospace; font-size: 0px; text-align: start; text-wrap-mode: nowrap;&quot;&gt;%3CmxGraphModel%3E%3Croot%3E%3CmxCell%20id%3D%220%22%2F%3E%3CmxCell%20id%3D%221%22%20parent%3D%220%22%2F%3E%3CmxCell%20id%3D%222%22%20value%3D%22%22%20style%3D%22endArrow%3Dclassic%3Bhtml%3D1%3Brounded%3D0%3B%22%20edge%3D%221%22%20parent%3D%221%22%3E%3CmxGeometry%20width%3D%2250%22%20height%3D%2250%22%20relative%3D%221%22%20as%3D%22geometry%22%3E%3CmxPoint%20x%3D%22-400%22%20y%3D%2270%22%20as%3D%22sourcePoint%22%2F%3E%3CmxPoint%20x%3D%22-399.5%22%20y%3D%22120%22%20as%3D%22targetPoint%22%2F%3E%3C%2FmxGeometry%3E%3C%2FmxCell%3E%3C%2Froot%3E%3C%2FmxGraphModel%3E&lt;/span&gt;" style="rounded=0;whiteSpace=wrap;html=1;" parent="1" vertex="1">
          <mxGeometry x="598.5" y="-2840" width="120" height="60" as="geometry" />
        </mxCell>
        <mxCell id="yrHQgA5anK2MkfYK_7r1-10" value="" style="endArrow=classic;html=1;rounded=0;" parent="1" edge="1">
          <mxGeometry width="50" height="50" relative="1" as="geometry">
            <mxPoint x="661.57" y="-2890" as="sourcePoint" />
            <mxPoint x="662.07" y="-2840" as="targetPoint" />
          </mxGeometry>
        </mxCell>
        <mxCell id="yrHQgA5anK2MkfYK_7r1-11" value="" style="endArrow=classic;html=1;rounded=0;" parent="1" edge="1">
          <mxGeometry width="50" height="50" relative="1" as="geometry">
            <mxPoint x="659.5699999999999" y="-2780" as="sourcePoint" />
            <mxPoint x="660.0699999999999" y="-2730" as="targetPoint" />
          </mxGeometry>
        </mxCell>
        <mxCell id="yrHQgA5anK2MkfYK_7r1-12" value="20 บาท = 15 ใบ&lt;span style=&quot;color: rgba(0, 0, 0, 0); font-family: monospace; font-size: 0px; text-align: start; text-wrap-mode: nowrap;&quot;&gt;%3CmxGraphModel%3E%3Croot%3E%3CmxCell%20id%3D%220%22%2F%3E%3CmxCell%20id%3D%221%22%20parent%3D%220%22%2F%3E%3CmxCell%20id%3D%222%22%20value%3D%22%22%20style%3D%22endArrow%3Dclassic%3Bhtml%3D1%3Brounded%3D0%3B%22%20edge%3D%221%22%20parent%3D%221%22%3E%3CmxGeometry%20width%3D%2250%22%20height%3D%2250%22%20relative%3D%221%22%20as%3D%22geometry%22%3E%3CmxPoint%20x%3D%22-400%22%20y%3D%2270%22%20as%3D%22sourcePoint%22%2F%3E%3CmxPoint%20x%3D%22-399.5%22%20y%3D%22120%22%20as%3D%22targetPoint%22%2F%3E%3C%2FmxGeometry%3E%3C%2FmxCell%3E%3C%2Froot%3E%3C%2FmxGraphModel%3E&lt;/span&gt;&lt;span style=&quot;color: rgba(0, 0, 0, 0); font-family: monospace; font-size: 0px; text-align: start; text-wrap-mode: nowrap;&quot;&gt;%3CmxGraphModel%3E%3Croot%3E%3CmxCell%20id%3D%220%22%2F%3E%3CmxCell%20id%3D%221%22%20parent%3D%220%22%2F%3E%3CmxCell%20id%3D%222%22%20value%3D%22%22%20style%3D%22endArrow%3Dclassic%3Bhtml%3D1%3Brounded%3D0%3B%22%20edge%3D%221%22%20parent%3D%221%22%3E%3CmxGeometry%20width%3D%2250%22%20height%3D%2250%22%20relative%3D%221%22%20as%3D%22geometry%22%3E%3CmxPoint%20x%3D%22-400%22%20y%3D%2270%22%20as%3D%22sourcePoint%22%2F%3E%3CmxPoint%20x%3D%22-399.5%22%20y%3D%22120%22%20as%3D%22targetPoint%22%2F%3E%3C%2FmxGeometry%3E%3C%2FmxCell%3E%3C%2Froot%3E%3C%2FmxGraphModel%3E&lt;/span&gt;" style="rounded=0;whiteSpace=wrap;html=1;" parent="1" vertex="1">
          <mxGeometry x="601" y="-2730" width="120" height="60" as="geometry" />
        </mxCell>
        <mxCell id="yrHQgA5anK2MkfYK_7r1-13" value="10 บาท = 200 เหรียญ&lt;span style=&quot;color: rgba(0, 0, 0, 0); font-family: monospace; font-size: 0px; text-align: start; text-wrap-mode: nowrap;&quot;&gt;%3CmxGraphModel%3E%3Croot%3E%3CmxCell%20id%3D%220%22%2F%3E%3CmxCell%20id%3D%221%22%20parent%3D%220%22%2F%3E%3CmxCell%20id%3D%222%22%20value%3D%22%22%20style%3D%22endArrow%3Dclassic%3Bhtml%3D1%3Brounded%3D0%3B%22%20edge%3D%221%22%20parent%3D%221%22%3E%3CmxGeometry%20width%3D%2250%22%20height%3D%2250%22%20relative%3D%221%22%20as%3D%22geometry%22%3E%3CmxPoint%20x%3D%22-400%22%20y%3D%2270%22%20as%3D%22sourcePoint%22%2F%3E%3CmxPoint%20x%3D%22-399.5%22%20y%3D%22120%22%20as%3D%22targetPoint%22%2F%3E%3C%2FmxGeometry%3E%3C%2FmxCell%3E%3C%2Froot%3E%3C%2FmxGraphModel%3E&lt;/span&gt;&lt;span style=&quot;color: rgba(0, 0, 0, 0); font-family: monospace; font-size: 0px; text-align: start; text-wrap-mode: nowrap;&quot;&gt;%3CmxGraphModel%3E%3Croot%3E%3CmxCell%20id%3D%220%22%2F%3E%3CmxCell%20id%3D%221%22%20parent%3D%220%22%2F%3E%3CmxCell%20id%3D%222%22%20value%3D%22%22%20style%3D%22endArrow%3Dclassic%3Bhtml%3D1%3Brounded%3D0%3B%22%20edge%3D%221%22%20parent%3D%221%22%3E%3CmxGeometry%20width%3D%2250%22%20height%3D%2250%22%20relative%3D%221%22%20as%3D%22geometry%22%3E%3CmxPoint%20x%3D%22-400%22%20y%3D%2270%22%20as%3D%22sourcePoint%22%2F%3E%3CmxPoint%20x%3D%22-399.5%22%20y%3D%22120%22%20as%3D%22targetPoint%22%2F%3E%3C%2FmxGeometry%3E%3C%2FmxCell%3E%3C%2Froot%3E%3C%2FmxGraphModel%3E&lt;/span&gt;" style="rounded=0;whiteSpace=wrap;html=1;" parent="1" vertex="1">
          <mxGeometry x="603.5" y="-2620" width="120" height="60" as="geometry" />
        </mxCell>
        <mxCell id="yrHQgA5anK2MkfYK_7r1-14" value="" style="endArrow=classic;html=1;rounded=0;" parent="1" edge="1">
          <mxGeometry width="50" height="50" relative="1" as="geometry">
            <mxPoint x="660.5699999999999" y="-2670" as="sourcePoint" />
            <mxPoint x="661.0699999999999" y="-2620" as="targetPoint" />
          </mxGeometry>
        </mxCell>
        <mxCell id="yrHQgA5anK2MkfYK_7r1-15" value="5 บาท = 500 เหรียญ&lt;span style=&quot;color: rgba(0, 0, 0, 0); font-family: monospace; font-size: 0px; text-align: start; text-wrap-mode: nowrap;&quot;&gt;%3CmxGraphModel%3E%3Croot%3E%3CmxCell%20id%3D%220%22%2F%3E%3CmxCell%20id%3D%221%22%20parent%3D%220%22%2F%3E%3CmxCell%20id%3D%222%22%20value%3D%22%22%20style%3D%22endArrow%3Dclassic%3Bhtml%3D1%3Brounded%3D0%3B%22%20edge%3D%221%22%20parent%3D%221%22%3E%3CmxGeometry%20width%3D%2250%22%20height%3D%2250%22%20relative%3D%221%22%20as%3D%22geometry%22%3E%3CmxPoint%20x%3D%22-400%22%20y%3D%2270%22%20as%3D%22sourcePoint%22%2F%3E%3CmxPoint%20x%3D%22-399.5%22%20y%3D%22120%22%20as%3D%22targetPoint%22%2F%3E%3C%2FmxGeometry%3E%3C%2FmxCell%3E%3C%2Froot%3E%3C%2FmxGraphModel%3E&lt;/span&gt;&lt;span style=&quot;color: rgba(0, 0, 0, 0); font-family: monospace; font-size: 0px; text-align: start; text-wrap-mode: nowrap;&quot;&gt;%3CmxGraphModel%3E%3Croot%3E%3CmxCell%20id%3D%220%22%2F%3E%3CmxCell%20id%3D%221%22%20parent%3D%220%22%2F%3E%3CmxCell%20id%3D%222%22%20value%3D%22%22%20style%3D%22endArrow%3Dclassic%3Bhtml%3D1%3Brounded%3D0%3B%22%20edge%3D%221%22%20parent%3D%221%22%3E%3CmxGeometry%20width%3D%2250%22%20height%3D%2250%22%20relative%3D%221%22%20as%3D%22geometry%22%3E%3CmxPoint%20x%3D%22-400%22%20y%3D%2270%22%20as%3D%22sourcePoint%22%2F%3E%3CmxPoint%20x%3D%22-399.5%22%20y%3D%22120%22%20as%3D%22targetPoint%22%2F%3E%3C%2FmxGeometry%3E%3C%2FmxCell%3E%3C%2Froot%3E%3C%2FmxGraphModel%3E&lt;/span&gt;" style="rounded=0;whiteSpace=wrap;html=1;" parent="1" vertex="1">
          <mxGeometry x="606" y="-2510" width="120" height="60" as="geometry" />
        </mxCell>
        <mxCell id="yrHQgA5anK2MkfYK_7r1-16" value="" style="endArrow=classic;html=1;rounded=0;" parent="1" edge="1">
          <mxGeometry width="50" height="50" relative="1" as="geometry">
            <mxPoint x="660.5699999999999" y="-2560" as="sourcePoint" />
            <mxPoint x="661.0699999999999" y="-2510" as="targetPoint" />
          </mxGeometry>
        </mxCell>
        <mxCell id="yrHQgA5anK2MkfYK_7r1-17" value="" style="endArrow=classic;html=1;rounded=0;" parent="1" edge="1">
          <mxGeometry width="50" height="50" relative="1" as="geometry">
            <mxPoint x="660.5699999999999" y="-2450" as="sourcePoint" />
            <mxPoint x="661.0699999999999" y="-2400" as="targetPoint" />
          </mxGeometry>
        </mxCell>
        <mxCell id="yrHQgA5anK2MkfYK_7r1-18" value="1 บาท = 1000 เหรียญ&lt;span style=&quot;color: rgba(0, 0, 0, 0); font-family: monospace; font-size: 0px; text-align: start; text-wrap-mode: nowrap;&quot;&gt;%3CmxGraphModel%3E%3Croot%3E%3CmxCell%20id%3D%220%22%2F%3E%3CmxCell%20id%3D%221%22%20parent%3D%220%22%2F%3E%3CmxCell%20id%3D%222%22%20value%3D%22%22%20style%3D%22endArrow%3Dclassic%3Bhtml%3D1%3Brounded%3D0%3B%22%20edge%3D%221%22%20parent%3D%221%22%3E%3CmxGeometry%20width%3D%2250%22%20height%3D%2250%22%20relative%3D%221%22%20as%3D%22geometry%22%3E%3CmxPoint%20x%3D%22-400%22%20y%3D%2270%22%20as%3D%22sourcePoint%22%2F%3E%3CmxPoint%20x%3D%22-399.5%22%20y%3D%22120%22%20as%3D%22targetPoint%22%2F%3E%3C%2FmxGeometry%3E%3C%2FmxCell%3E%3C%2Froot%3E%3C%2FmxGraphModel%3E&lt;/span&gt;&lt;span style=&quot;color: rgba(0, 0, 0, 0); font-family: monospace; font-size: 0px; text-align: start; text-wrap-mode: nowrap;&quot;&gt;%3CmxGraphModel%3E%3Croot%3E%3CmxCell%20id%3D%220%22%2F%3E%3CmxCell%20id%3D%221%22%20parent%3D%220%22%2F%3E%3CmxCell%20id%3D%222%22%20value%3D%22%22%20style%3D%22endArrow%3Dclassic%3Bhtml%3D1%3Brounded%3D0%3B%22%20edge%3D%221%22%20parent%3D%221%22%3E%3CmxGeometry%20width%3D%2250%22%20height%3D%2250%22%20relative%3D%221%22%20as%3D%22geometry%22%3E%3CmxPoint%20x%3D%22-400%22%20y%3D%2270%22%20as%3D%22sourcePoint%22%2F%3E%3CmxPoint%20x%3D%22-399.5%22%20y%3D%22120%22%20as%3D%22targetPoint%22%2F%3E%3C%2FmxGeometry%3E%3C%2FmxCell%3E%3C%2Froot%3E%3C%2FmxGraphModel%3E&lt;/span&gt;" style="rounded=0;whiteSpace=wrap;html=1;" parent="1" vertex="1">
          <mxGeometry x="606" y="-2400" width="120" height="60" as="geometry" />
        </mxCell>
        <mxCell id="yrHQgA5anK2MkfYK_7r1-19" value="รับข้อมูลสินค้า" style="shape=parallelogram;perimeter=parallelogramPerimeter;whiteSpace=wrap;html=1;fixedSize=1;" parent="1" vertex="1">
          <mxGeometry x="593.5" y="-2290" width="140" height="60" as="geometry" />
        </mxCell>
        <mxCell id="yrHQgA5anK2MkfYK_7r1-20" value="" style="endArrow=classic;html=1;rounded=0;" parent="1" edge="1">
          <mxGeometry width="50" height="50" relative="1" as="geometry">
            <mxPoint x="663.0699999999999" y="-2340" as="sourcePoint" />
            <mxPoint x="663.5699999999999" y="-2290" as="targetPoint" />
          </mxGeometry>
        </mxCell>
        <mxCell id="yrHQgA5anK2MkfYK_7r1-21" value="" style="endArrow=classic;html=1;rounded=0;" parent="1" source="yrHQgA5anK2MkfYK_7r1-40" edge="1">
          <mxGeometry width="50" height="50" relative="1" as="geometry">
            <mxPoint x="665.52" y="-1430" as="sourcePoint" />
            <mxPoint x="666.02" y="-1380" as="targetPoint" />
          </mxGeometry>
        </mxCell>
        <mxCell id="yrHQgA5anK2MkfYK_7r1-22" value="ลูกค้าเลือกสินค้า&lt;div&gt;ประเภทขนม&lt;/div&gt;" style="shape=parallelogram;perimeter=parallelogramPerimeter;whiteSpace=wrap;html=1;fixedSize=1;" parent="1" vertex="1">
          <mxGeometry x="320" y="-1200" width="120" height="60" as="geometry" />
        </mxCell>
        <mxCell id="yrHQgA5anK2MkfYK_7r1-23" value="ลูกค้าเลือกสินค้า&lt;div&gt;ขนม&lt;span style=&quot;background-color: transparent; color: light-dark(rgb(0, 0, 0), rgb(255, 255, 255));&quot;&gt;ใช่หรือไม่&lt;/span&gt;&lt;/div&gt;" style="rhombus;whiteSpace=wrap;html=1;" parent="1" vertex="1">
          <mxGeometry x="602" y="-1310" width="130" height="90" as="geometry" />
        </mxCell>
        <mxCell id="yrHQgA5anK2MkfYK_7r1-24" value="" style="endArrow=classic;html=1;rounded=0;" parent="1" edge="1">
          <mxGeometry width="50" height="50" relative="1" as="geometry">
            <mxPoint x="666.52" y="-1360" as="sourcePoint" />
            <mxPoint x="667.02" y="-1310" as="targetPoint" />
          </mxGeometry>
        </mxCell>
        <mxCell id="yrHQgA5anK2MkfYK_7r1-25" value="" style="endArrow=classic;html=1;rounded=0;entryX=0.5;entryY=0;entryDx=0;entryDy=0;" parent="1" target="yrHQgA5anK2MkfYK_7r1-38" edge="1">
          <mxGeometry width="50" height="50" relative="1" as="geometry">
            <mxPoint x="732" y="-1265.34" as="sourcePoint" />
            <mxPoint x="867" y="-1210" as="targetPoint" />
            <Array as="points">
              <mxPoint x="1030" y="-1265" />
            </Array>
          </mxGeometry>
        </mxCell>
        <mxCell id="yrHQgA5anK2MkfYK_7r1-26" value="เท็จ" style="edgeLabel;html=1;align=center;verticalAlign=middle;resizable=0;points=[];" parent="yrHQgA5anK2MkfYK_7r1-25" vertex="1" connectable="0">
          <mxGeometry x="0.6355" y="1" relative="1" as="geometry">
            <mxPoint as="offset" />
          </mxGeometry>
        </mxCell>
        <mxCell id="yrHQgA5anK2MkfYK_7r1-27" value="" style="endArrow=classic;html=1;rounded=0;entryX=0.583;entryY=0;entryDx=0;entryDy=0;entryPerimeter=0;" parent="1" target="yrHQgA5anK2MkfYK_7r1-22" edge="1">
          <mxGeometry width="50" height="50" relative="1" as="geometry">
            <mxPoint x="602" y="-1265.59" as="sourcePoint" />
            <mxPoint x="467" y="-1200" as="targetPoint" />
            <Array as="points">
              <mxPoint x="390" y="-1266" />
            </Array>
          </mxGeometry>
        </mxCell>
        <mxCell id="yrHQgA5anK2MkfYK_7r1-28" value="จรืง" style="edgeLabel;html=1;align=center;verticalAlign=middle;resizable=0;points=[];" parent="yrHQgA5anK2MkfYK_7r1-27" vertex="1" connectable="0">
          <mxGeometry x="0.6375" y="1" relative="1" as="geometry">
            <mxPoint as="offset" />
          </mxGeometry>
        </mxCell>
        <mxCell id="yrHQgA5anK2MkfYK_7r1-29" value="&lt;span style=&quot;font-family: Sarabun; text-align: left; text-wrap-mode: nowrap;&quot;&gt;&lt;font&gt;โค้ก กระป๋อง&lt;/font&gt;&lt;/span&gt;&lt;div&gt;&lt;span style=&quot;font-family: Sarabun; text-align: left; text-wrap-mode: nowrap;&quot;&gt;&lt;font&gt;ละ 10 บาท&lt;/font&gt;&lt;/span&gt;&lt;/div&gt;" style="rhombus;whiteSpace=wrap;html=1;" parent="1" vertex="1">
          <mxGeometry x="967" y="-1051" width="120" height="100" as="geometry" />
        </mxCell>
        <mxCell id="yrHQgA5anK2MkfYK_7r1-30" value="" style="endArrow=none;html=1;rounded=0;" parent="1" edge="1">
          <mxGeometry width="50" height="50" relative="1" as="geometry">
            <mxPoint x="1026" y="-930" as="sourcePoint" />
            <mxPoint x="1026.06" y="-951" as="targetPoint" />
          </mxGeometry>
        </mxCell>
        <mxCell id="yrHQgA5anK2MkfYK_7r1-31" value="" style="endArrow=classic;html=1;rounded=0;exitX=1;exitY=0.5;exitDx=0;exitDy=0;" parent="1" source="yrHQgA5anK2MkfYK_7r1-29" target="yrHQgA5anK2MkfYK_7r1-37" edge="1">
          <mxGeometry width="50" height="50" relative="1" as="geometry">
            <mxPoint x="1186" y="-1030" as="sourcePoint" />
            <mxPoint x="1187" y="-891" as="targetPoint" />
            <Array as="points">
              <mxPoint x="1486" y="-1001" />
            </Array>
          </mxGeometry>
        </mxCell>
        <mxCell id="yrHQgA5anK2MkfYK_7r1-32" value="เท็จ" style="edgeLabel;html=1;align=center;verticalAlign=middle;resizable=0;points=[];" parent="yrHQgA5anK2MkfYK_7r1-31" vertex="1" connectable="0">
          <mxGeometry x="-0.5481" y="-2" relative="1" as="geometry">
            <mxPoint as="offset" />
          </mxGeometry>
        </mxCell>
        <mxCell id="yrHQgA5anK2MkfYK_7r1-33" value="" style="endArrow=classic;html=1;rounded=0;" parent="1" edge="1">
          <mxGeometry width="50" height="50" relative="1" as="geometry">
            <mxPoint x="1026" y="-930" as="sourcePoint" />
            <mxPoint x="977" y="-891" as="targetPoint" />
            <Array as="points">
              <mxPoint x="976" y="-930" />
            </Array>
          </mxGeometry>
        </mxCell>
        <mxCell id="yrHQgA5anK2MkfYK_7r1-34" value="จริง" style="edgeLabel;html=1;align=center;verticalAlign=middle;resizable=0;points=[];" parent="yrHQgA5anK2MkfYK_7r1-33" vertex="1" connectable="0">
          <mxGeometry x="-0.308" y="-1" relative="1" as="geometry">
            <mxPoint as="offset" />
          </mxGeometry>
        </mxCell>
        <mxCell id="yrHQgA5anK2MkfYK_7r1-35" style="edgeStyle=orthogonalEdgeStyle;rounded=0;orthogonalLoop=1;jettySize=auto;html=1;exitX=1;exitY=0.5;exitDx=0;exitDy=0;" parent="1" source="yrHQgA5anK2MkfYK_7r1-37" edge="1">
          <mxGeometry relative="1" as="geometry">
            <mxPoint x="1956" y="-630" as="targetPoint" />
            <Array as="points">
              <mxPoint x="1956" y="-814" />
            </Array>
          </mxGeometry>
        </mxCell>
        <mxCell id="yrHQgA5anK2MkfYK_7r1-36" value="เท็จ" style="edgeLabel;html=1;align=center;verticalAlign=middle;resizable=0;points=[];" parent="yrHQgA5anK2MkfYK_7r1-35" vertex="1" connectable="0">
          <mxGeometry x="-0.4242" y="-2" relative="1" as="geometry">
            <mxPoint as="offset" />
          </mxGeometry>
        </mxCell>
        <mxCell id="yrHQgA5anK2MkfYK_7r1-37" value="&lt;span style=&quot;font-family: Sarabun; text-align: left; text-wrap-mode: nowrap;&quot;&gt;&lt;font&gt;น้ำเขียว กระป๋อง&lt;/font&gt;&lt;/span&gt;&lt;div&gt;&lt;span style=&quot;font-family: Sarabun; text-align: left; text-wrap-mode: nowrap;&quot;&gt;&lt;font&gt;ละ 12 บาท&lt;/font&gt;&lt;/span&gt;&lt;/div&gt;" style="rhombus;whiteSpace=wrap;html=1;" parent="1" vertex="1">
          <mxGeometry x="1416" y="-870" width="140" height="110" as="geometry" />
        </mxCell>
        <mxCell id="yrHQgA5anK2MkfYK_7r1-38" value="ลูกค้าเลือกสินค้า&lt;div&gt;ประเภทน้ำ&lt;/div&gt;" style="shape=parallelogram;perimeter=parallelogramPerimeter;whiteSpace=wrap;html=1;fixedSize=1;" parent="1" vertex="1">
          <mxGeometry x="970" y="-1190" width="120" height="60" as="geometry" />
        </mxCell>
        <mxCell id="yrHQgA5anK2MkfYK_7r1-39" value="" style="endArrow=classic;html=1;rounded=0;entryX=0.5;entryY=0;entryDx=0;entryDy=0;" parent="1" target="yrHQgA5anK2MkfYK_7r1-29" edge="1">
          <mxGeometry width="50" height="50" relative="1" as="geometry">
            <mxPoint x="1026.29" y="-1130" as="sourcePoint" />
            <mxPoint x="1026.29" y="-1070" as="targetPoint" />
          </mxGeometry>
        </mxCell>
        <mxCell id="yrHQgA5anK2MkfYK_7r1-40" value="" style="strokeWidth=2;html=1;shape=mxgraph.flowchart.start_2;whiteSpace=wrap;" parent="1" vertex="1">
          <mxGeometry x="656" y="-1380" width="20" height="20" as="geometry" />
        </mxCell>
        <mxCell id="yrHQgA5anK2MkfYK_7r1-41" value="" style="endArrow=classic;html=1;rounded=0;" parent="1" edge="1">
          <mxGeometry width="50" height="50" relative="1" as="geometry">
            <mxPoint x="665.75" y="-1430" as="sourcePoint" />
            <mxPoint x="666" y="-1380" as="targetPoint" />
          </mxGeometry>
        </mxCell>
        <mxCell id="yrHQgA5anK2MkfYK_7r1-42" value="&lt;div style=&quot;text-align: left;&quot;&gt;&lt;span style=&quot;background-color: transparent; color: light-dark(rgb(0, 0, 0), rgb(255, 255, 255)); text-wrap-mode: nowrap;&quot;&gt;&lt;font face=&quot;Sarabun&quot;&gt;ตรวจสอบสินค้า&lt;/font&gt;&lt;/span&gt;&lt;/div&gt;&lt;div style=&quot;&quot;&gt;&lt;span style=&quot;background-color: transparent; color: light-dark(rgb(0, 0, 0), rgb(255, 255, 255)); text-wrap-mode: nowrap;&quot;&gt;&lt;font face=&quot;Sarabun&quot;&gt;มีหรือไม่&lt;/font&gt;&lt;/span&gt;&lt;/div&gt;" style="rhombus;whiteSpace=wrap;html=1;" parent="1" vertex="1">
          <mxGeometry x="906" y="-750" width="140" height="110" as="geometry" />
        </mxCell>
        <mxCell id="yrHQgA5anK2MkfYK_7r1-43" value="" style="endArrow=classic;html=1;rounded=0;" parent="1" edge="1">
          <mxGeometry width="50" height="50" relative="1" as="geometry">
            <mxPoint x="975.41" y="-640" as="sourcePoint" />
            <mxPoint x="976" y="-590" as="targetPoint" />
          </mxGeometry>
        </mxCell>
        <mxCell id="yrHQgA5anK2MkfYK_7r1-44" value="จริง" style="edgeLabel;html=1;align=center;verticalAlign=middle;resizable=0;points=[];" parent="yrHQgA5anK2MkfYK_7r1-43" vertex="1" connectable="0">
          <mxGeometry x="-0.3204" y="-1" relative="1" as="geometry">
            <mxPoint as="offset" />
          </mxGeometry>
        </mxCell>
        <mxCell id="yrHQgA5anK2MkfYK_7r1-45" value="&lt;font&gt;เหลือสินค้า&lt;/font&gt;" style="rounded=0;whiteSpace=wrap;html=1;" parent="1" vertex="1">
          <mxGeometry x="926" y="-590" width="100" height="60" as="geometry" />
        </mxCell>
        <mxCell id="yrHQgA5anK2MkfYK_7r1-46" value="" style="endArrow=classic;html=1;rounded=0;exitX=1;exitY=0.5;exitDx=0;exitDy=0;" parent="1" source="yrHQgA5anK2MkfYK_7r1-42" edge="1">
          <mxGeometry width="50" height="50" relative="1" as="geometry">
            <mxPoint x="1046" y="-700" as="sourcePoint" />
            <mxPoint x="1156" y="-600" as="targetPoint" />
            <Array as="points">
              <mxPoint x="1156" y="-695" />
            </Array>
          </mxGeometry>
        </mxCell>
        <mxCell id="yrHQgA5anK2MkfYK_7r1-47" value="เท็จ" style="edgeLabel;html=1;align=center;verticalAlign=middle;resizable=0;points=[];" parent="yrHQgA5anK2MkfYK_7r1-46" vertex="1" connectable="0">
          <mxGeometry x="0.3161" y="-1" relative="1" as="geometry">
            <mxPoint as="offset" />
          </mxGeometry>
        </mxCell>
        <mxCell id="TuvqL_PQ36lqhd3cV9sE-1" style="edgeStyle=orthogonalEdgeStyle;rounded=0;orthogonalLoop=1;jettySize=auto;html=1;entryX=1;entryY=0.5;entryDx=0;entryDy=0;entryPerimeter=0;" edge="1" parent="1" source="yrHQgA5anK2MkfYK_7r1-49" target="yrHQgA5anK2MkfYK_7r1-40">
          <mxGeometry relative="1" as="geometry">
            <mxPoint x="3050" y="-1360" as="targetPoint" />
            <Array as="points">
              <mxPoint x="1156" y="200" />
              <mxPoint x="1180" y="200" />
              <mxPoint x="1180" y="860" />
              <mxPoint x="3050" y="860" />
              <mxPoint x="3050" y="-1370" />
            </Array>
          </mxGeometry>
        </mxCell>
        <mxCell id="yrHQgA5anK2MkfYK_7r1-49" value="สินค้าหมด" style="rounded=0;whiteSpace=wrap;html=1;" parent="1" vertex="1">
          <mxGeometry x="1106" y="-600" width="100" height="60" as="geometry" />
        </mxCell>
        <mxCell id="yrHQgA5anK2MkfYK_7r1-50" value="&lt;div style=&quot;&quot;&gt;&lt;font face=&quot;Sarabun&quot;&gt;&lt;span style=&quot;text-wrap-mode: nowrap;&quot;&gt;จำนวนที่เลือก&amp;gt;&lt;/span&gt;&lt;/font&gt;&lt;span style=&quot;text-wrap-mode: nowrap; font-family: Sarabun; background-color: transparent; color: light-dark(rgb(0, 0, 0), rgb(255, 255, 255));&quot;&gt;จำนวน&lt;/span&gt;&lt;/div&gt;&lt;div style=&quot;&quot;&gt;&lt;span style=&quot;text-wrap-mode: nowrap; font-family: Sarabun; background-color: transparent; color: light-dark(rgb(0, 0, 0), rgb(255, 255, 255));&quot;&gt;คงเหลือ&lt;/span&gt;&lt;/div&gt;" style="rhombus;whiteSpace=wrap;html=1;" parent="1" vertex="1">
          <mxGeometry x="901" y="-369" width="160" height="110" as="geometry" />
        </mxCell>
        <mxCell id="yrHQgA5anK2MkfYK_7r1-51" value="" style="endArrow=classic;html=1;rounded=0;exitX=0;exitY=0.5;exitDx=0;exitDy=0;" parent="1" source="yrHQgA5anK2MkfYK_7r1-50" edge="1">
          <mxGeometry width="50" height="50" relative="1" as="geometry">
            <mxPoint x="896" y="-320" as="sourcePoint" />
            <mxPoint x="796" y="-240" as="targetPoint" />
            <Array as="points">
              <mxPoint x="796" y="-315" />
            </Array>
          </mxGeometry>
        </mxCell>
        <mxCell id="yrHQgA5anK2MkfYK_7r1-52" value="จริง" style="edgeLabel;html=1;align=center;verticalAlign=middle;resizable=0;points=[];" parent="yrHQgA5anK2MkfYK_7r1-51" vertex="1" connectable="0">
          <mxGeometry x="0.4626" y="-1" relative="1" as="geometry">
            <mxPoint as="offset" />
          </mxGeometry>
        </mxCell>
        <mxCell id="yrHQgA5anK2MkfYK_7r1-53" value="&lt;font&gt;สินค้าคงเหลือ&lt;/font&gt;" style="rounded=0;whiteSpace=wrap;html=1;" parent="1" vertex="1">
          <mxGeometry x="736" y="-240" width="110" height="60" as="geometry" />
        </mxCell>
        <mxCell id="yrHQgA5anK2MkfYK_7r1-54" value="แสดงข้อความ&lt;div&gt;จำนวนสินค้าคงเหลือ&lt;/div&gt;&lt;div&gt;ไม่พอ&lt;/div&gt;" style="rounded=0;whiteSpace=wrap;html=1;" parent="1" vertex="1">
          <mxGeometry x="921" y="-180" width="110" height="60" as="geometry" />
        </mxCell>
        <mxCell id="yrHQgA5anK2MkfYK_7r1-55" value="" style="endArrow=classic;html=1;rounded=0;" parent="1" edge="1">
          <mxGeometry width="50" height="50" relative="1" as="geometry">
            <mxPoint x="975.6" y="-260" as="sourcePoint" />
            <mxPoint x="976" y="-180" as="targetPoint" />
          </mxGeometry>
        </mxCell>
        <mxCell id="yrHQgA5anK2MkfYK_7r1-56" value="เท็จ" style="edgeLabel;html=1;align=center;verticalAlign=middle;resizable=0;points=[];" parent="yrHQgA5anK2MkfYK_7r1-55" vertex="1" connectable="0">
          <mxGeometry x="-0.3206" y="-2" relative="1" as="geometry">
            <mxPoint as="offset" />
          </mxGeometry>
        </mxCell>
        <mxCell id="yrHQgA5anK2MkfYK_7r1-57" style="edgeStyle=orthogonalEdgeStyle;rounded=0;orthogonalLoop=1;jettySize=auto;html=1;entryX=0.5;entryY=0;entryDx=0;entryDy=0;" parent="1" source="yrHQgA5anK2MkfYK_7r1-58" target="yrHQgA5anK2MkfYK_7r1-50" edge="1">
          <mxGeometry relative="1" as="geometry" />
        </mxCell>
        <mxCell id="yrHQgA5anK2MkfYK_7r1-58" value="&lt;font&gt;เลือกจำนวนสินค้า&lt;/font&gt;" style="rounded=0;whiteSpace=wrap;html=1;" parent="1" vertex="1">
          <mxGeometry x="926" y="-459" width="110" height="59" as="geometry" />
        </mxCell>
        <mxCell id="yrHQgA5anK2MkfYK_7r1-59" value="&lt;font&gt;เลือกสินค้า&lt;/font&gt;" style="rounded=0;whiteSpace=wrap;html=1;" parent="1" vertex="1">
          <mxGeometry x="936" y="-890" width="100" height="60" as="geometry" />
        </mxCell>
        <mxCell id="yrHQgA5anK2MkfYK_7r1-60" value="" style="endArrow=classic;html=1;rounded=0;entryX=0.5;entryY=0;entryDx=0;entryDy=0;" parent="1" edge="1">
          <mxGeometry width="50" height="50" relative="1" as="geometry">
            <mxPoint x="976" y="-830" as="sourcePoint" />
            <mxPoint x="976.71" y="-751" as="targetPoint" />
          </mxGeometry>
        </mxCell>
        <mxCell id="yrHQgA5anK2MkfYK_7r1-61" value="" style="endArrow=classic;html=1;rounded=0;" parent="1" edge="1">
          <mxGeometry width="50" height="50" relative="1" as="geometry">
            <mxPoint x="795.52" y="-180" as="sourcePoint" />
            <mxPoint x="795.92" y="-100" as="targetPoint" />
          </mxGeometry>
        </mxCell>
        <mxCell id="yrHQgA5anK2MkfYK_7r1-62" style="edgeStyle=orthogonalEdgeStyle;rounded=0;orthogonalLoop=1;jettySize=auto;html=1;exitX=0.5;exitY=1;exitDx=0;exitDy=0;entryX=1;entryY=0.5;entryDx=0;entryDy=0;entryPerimeter=0;" parent="1" source="yrHQgA5anK2MkfYK_7r1-63" target="yrHQgA5anK2MkfYK_7r1-228" edge="1">
          <mxGeometry relative="1" as="geometry">
            <mxPoint x="790" y="980" as="targetPoint" />
            <Array as="points">
              <mxPoint x="791" y="470" />
              <mxPoint x="790" y="470" />
              <mxPoint x="790" y="960" />
            </Array>
          </mxGeometry>
        </mxCell>
        <mxCell id="yrHQgA5anK2MkfYK_7r1-63" value="รับสินค้า" style="shape=parallelogram;perimeter=parallelogramPerimeter;whiteSpace=wrap;html=1;fixedSize=1;" parent="1" vertex="1">
          <mxGeometry x="731" y="-99" width="120" height="60" as="geometry" />
        </mxCell>
        <mxCell id="yrHQgA5anK2MkfYK_7r1-64" value="" style="endArrow=none;html=1;rounded=0;" parent="1" edge="1">
          <mxGeometry width="50" height="50" relative="1" as="geometry">
            <mxPoint x="1485.8" y="-739" as="sourcePoint" />
            <mxPoint x="1485.8600000000001" y="-760" as="targetPoint" />
          </mxGeometry>
        </mxCell>
        <mxCell id="yrHQgA5anK2MkfYK_7r1-65" value="" style="endArrow=classic;html=1;rounded=0;" parent="1" edge="1">
          <mxGeometry width="50" height="50" relative="1" as="geometry">
            <mxPoint x="1486" y="-740" as="sourcePoint" />
            <mxPoint x="1442" y="-700" as="targetPoint" />
            <Array as="points">
              <mxPoint x="1441" y="-739" />
            </Array>
          </mxGeometry>
        </mxCell>
        <mxCell id="yrHQgA5anK2MkfYK_7r1-66" value="จริง" style="edgeLabel;html=1;align=center;verticalAlign=middle;resizable=0;points=[];" parent="yrHQgA5anK2MkfYK_7r1-65" vertex="1" connectable="0">
          <mxGeometry x="-0.308" y="-1" relative="1" as="geometry">
            <mxPoint as="offset" />
          </mxGeometry>
        </mxCell>
        <mxCell id="yrHQgA5anK2MkfYK_7r1-67" value="&lt;div style=&quot;text-align: left;&quot;&gt;&lt;span style=&quot;background-color: transparent; color: light-dark(rgb(0, 0, 0), rgb(255, 255, 255)); text-wrap-mode: nowrap;&quot;&gt;&lt;font face=&quot;Sarabun&quot;&gt;ตรวจสอบสินค้า&lt;/font&gt;&lt;/span&gt;&lt;/div&gt;&lt;div style=&quot;&quot;&gt;&lt;span style=&quot;background-color: transparent; color: light-dark(rgb(0, 0, 0), rgb(255, 255, 255)); text-wrap-mode: nowrap;&quot;&gt;&lt;font face=&quot;Sarabun&quot;&gt;มีหรือไม่&lt;/font&gt;&lt;/span&gt;&lt;/div&gt;" style="rhombus;whiteSpace=wrap;html=1;" parent="1" vertex="1">
          <mxGeometry x="1371" y="-559" width="140" height="110" as="geometry" />
        </mxCell>
        <mxCell id="yrHQgA5anK2MkfYK_7r1-68" value="" style="endArrow=classic;html=1;rounded=0;" parent="1" edge="1">
          <mxGeometry width="50" height="50" relative="1" as="geometry">
            <mxPoint x="1440.4099999999999" y="-449" as="sourcePoint" />
            <mxPoint x="1441" y="-410" as="targetPoint" />
          </mxGeometry>
        </mxCell>
        <mxCell id="yrHQgA5anK2MkfYK_7r1-69" value="จริง" style="edgeLabel;html=1;align=center;verticalAlign=middle;resizable=0;points=[];" parent="yrHQgA5anK2MkfYK_7r1-68" vertex="1" connectable="0">
          <mxGeometry x="-0.1574" relative="1" as="geometry">
            <mxPoint as="offset" />
          </mxGeometry>
        </mxCell>
        <mxCell id="yrHQgA5anK2MkfYK_7r1-70" value="&lt;font&gt;เหลือสินค้า&lt;/font&gt;" style="rounded=0;whiteSpace=wrap;html=1;" parent="1" vertex="1">
          <mxGeometry x="1391" y="-409" width="100" height="60" as="geometry" />
        </mxCell>
        <mxCell id="yrHQgA5anK2MkfYK_7r1-71" value="" style="endArrow=classic;html=1;rounded=0;exitX=1;exitY=0.5;exitDx=0;exitDy=0;entryX=0.5;entryY=0;entryDx=0;entryDy=0;" parent="1" source="yrHQgA5anK2MkfYK_7r1-67" target="yrHQgA5anK2MkfYK_7r1-73" edge="1">
          <mxGeometry width="50" height="50" relative="1" as="geometry">
            <mxPoint x="1540" y="-509" as="sourcePoint" />
            <mxPoint x="1650" y="-409" as="targetPoint" />
            <Array as="points">
              <mxPoint x="1660" y="-500" />
            </Array>
          </mxGeometry>
        </mxCell>
        <mxCell id="yrHQgA5anK2MkfYK_7r1-72" value="เท็จ" style="edgeLabel;html=1;align=center;verticalAlign=middle;resizable=0;points=[];" parent="yrHQgA5anK2MkfYK_7r1-71" vertex="1" connectable="0">
          <mxGeometry x="0.4551" relative="1" as="geometry">
            <mxPoint as="offset" />
          </mxGeometry>
        </mxCell>
        <mxCell id="yrHQgA5anK2MkfYK_7r1-73" value="สินค้าหมด" style="rounded=0;whiteSpace=wrap;html=1;" parent="1" vertex="1">
          <mxGeometry x="1610" y="-409" width="100" height="60" as="geometry" />
        </mxCell>
        <mxCell id="yrHQgA5anK2MkfYK_7r1-74" value="&lt;div style=&quot;&quot;&gt;&lt;font face=&quot;Sarabun&quot;&gt;&lt;span style=&quot;text-wrap-mode: nowrap;&quot;&gt;จำนวนที่เลือก&amp;gt;&lt;/span&gt;&lt;/font&gt;&lt;span style=&quot;text-wrap-mode: nowrap; font-family: Sarabun; background-color: transparent; color: light-dark(rgb(0, 0, 0), rgb(255, 255, 255));&quot;&gt;จำนวน&lt;/span&gt;&lt;/div&gt;&lt;div style=&quot;&quot;&gt;&lt;span style=&quot;text-wrap-mode: nowrap; font-family: Sarabun; background-color: transparent; color: light-dark(rgb(0, 0, 0), rgb(255, 255, 255));&quot;&gt;คงเหลือ&lt;/span&gt;&lt;/div&gt;" style="rhombus;whiteSpace=wrap;html=1;" parent="1" vertex="1">
          <mxGeometry x="1361" y="-179" width="160" height="110" as="geometry" />
        </mxCell>
        <mxCell id="yrHQgA5anK2MkfYK_7r1-75" value="" style="endArrow=classic;html=1;rounded=0;exitX=0;exitY=0.5;exitDx=0;exitDy=0;" parent="1" source="yrHQgA5anK2MkfYK_7r1-74" edge="1">
          <mxGeometry width="50" height="50" relative="1" as="geometry">
            <mxPoint x="1361" y="-129" as="sourcePoint" />
            <mxPoint x="1261" y="-49" as="targetPoint" />
            <Array as="points">
              <mxPoint x="1261" y="-124" />
            </Array>
          </mxGeometry>
        </mxCell>
        <mxCell id="yrHQgA5anK2MkfYK_7r1-76" value="จริง" style="edgeLabel;html=1;align=center;verticalAlign=middle;resizable=0;points=[];" parent="yrHQgA5anK2MkfYK_7r1-75" vertex="1" connectable="0">
          <mxGeometry x="-0.3807" relative="1" as="geometry">
            <mxPoint as="offset" />
          </mxGeometry>
        </mxCell>
        <mxCell id="yrHQgA5anK2MkfYK_7r1-77" value="&lt;font&gt;สินค้าคงเหลือ&lt;/font&gt;" style="rounded=0;whiteSpace=wrap;html=1;" parent="1" vertex="1">
          <mxGeometry x="1201" y="-49" width="110" height="60" as="geometry" />
        </mxCell>
        <mxCell id="yrHQgA5anK2MkfYK_7r1-78" value="แสดงข้อความ&lt;div&gt;จำนวนสินค้าคงเหลือ&lt;/div&gt;&lt;div&gt;ไม่พอ&lt;/div&gt;" style="rounded=0;whiteSpace=wrap;html=1;" parent="1" vertex="1">
          <mxGeometry x="1386" y="11" width="110" height="60" as="geometry" />
        </mxCell>
        <mxCell id="yrHQgA5anK2MkfYK_7r1-79" value="" style="endArrow=classic;html=1;rounded=0;" parent="1" edge="1">
          <mxGeometry width="50" height="50" relative="1" as="geometry">
            <mxPoint x="1440.6" y="-69" as="sourcePoint" />
            <mxPoint x="1441" y="11" as="targetPoint" />
          </mxGeometry>
        </mxCell>
        <mxCell id="yrHQgA5anK2MkfYK_7r1-80" value="เท็จ" style="edgeLabel;html=1;align=center;verticalAlign=middle;resizable=0;points=[];" parent="yrHQgA5anK2MkfYK_7r1-79" vertex="1" connectable="0">
          <mxGeometry x="-0.1656" y="1" relative="1" as="geometry">
            <mxPoint as="offset" />
          </mxGeometry>
        </mxCell>
        <mxCell id="yrHQgA5anK2MkfYK_7r1-81" value="&lt;font&gt;เลือกจำนวนสินค้า&lt;/font&gt;" style="rounded=0;whiteSpace=wrap;html=1;" parent="1" vertex="1">
          <mxGeometry x="1391" y="-280" width="110" height="60" as="geometry" />
        </mxCell>
        <mxCell id="yrHQgA5anK2MkfYK_7r1-82" value="&lt;font&gt;เลือกสินค้า&lt;/font&gt;" style="rounded=0;whiteSpace=wrap;html=1;" parent="1" vertex="1">
          <mxGeometry x="1401" y="-699" width="100" height="60" as="geometry" />
        </mxCell>
        <mxCell id="yrHQgA5anK2MkfYK_7r1-83" value="" style="endArrow=classic;html=1;rounded=0;entryX=0.5;entryY=0;entryDx=0;entryDy=0;" parent="1" edge="1">
          <mxGeometry width="50" height="50" relative="1" as="geometry">
            <mxPoint x="1441" y="-639" as="sourcePoint" />
            <mxPoint x="1441.71" y="-560" as="targetPoint" />
          </mxGeometry>
        </mxCell>
        <mxCell id="yrHQgA5anK2MkfYK_7r1-84" value="" style="endArrow=classic;html=1;rounded=0;" parent="1" edge="1">
          <mxGeometry width="50" height="50" relative="1" as="geometry">
            <mxPoint x="1441" y="-220" as="sourcePoint" />
            <mxPoint x="1441" y="-179" as="targetPoint" />
          </mxGeometry>
        </mxCell>
        <mxCell id="yrHQgA5anK2MkfYK_7r1-85" value="" style="endArrow=classic;html=1;rounded=0;" parent="1" edge="1">
          <mxGeometry width="50" height="50" relative="1" as="geometry">
            <mxPoint x="1260.52" y="11" as="sourcePoint" />
            <mxPoint x="1260.92" y="91" as="targetPoint" />
          </mxGeometry>
        </mxCell>
        <mxCell id="yrHQgA5anK2MkfYK_7r1-86" value="รับสินค้า" style="shape=parallelogram;perimeter=parallelogramPerimeter;whiteSpace=wrap;html=1;fixedSize=1;" parent="1" vertex="1">
          <mxGeometry x="1196" y="91" width="120" height="60" as="geometry" />
        </mxCell>
        <mxCell id="yrHQgA5anK2MkfYK_7r1-87" style="edgeStyle=orthogonalEdgeStyle;rounded=0;orthogonalLoop=1;jettySize=auto;html=1;exitX=1;exitY=0.5;exitDx=0;exitDy=0;" parent="1" source="yrHQgA5anK2MkfYK_7r1-89" edge="1">
          <mxGeometry relative="1" as="geometry">
            <mxPoint x="2446" y="-440" as="targetPoint" />
            <Array as="points">
              <mxPoint x="2406" y="-575" />
              <mxPoint x="2406" y="-575" />
            </Array>
          </mxGeometry>
        </mxCell>
        <mxCell id="yrHQgA5anK2MkfYK_7r1-88" value="เท็จ" style="edgeLabel;html=1;align=center;verticalAlign=middle;resizable=0;points=[];" parent="yrHQgA5anK2MkfYK_7r1-87" vertex="1" connectable="0">
          <mxGeometry x="-0.4086" y="-3" relative="1" as="geometry">
            <mxPoint as="offset" />
          </mxGeometry>
        </mxCell>
        <mxCell id="yrHQgA5anK2MkfYK_7r1-89" value="&lt;span style=&quot;font-family: Sarabun; font-size: 14px; text-align: left; text-wrap-mode: nowrap;&quot;&gt;อเมริกาโน่ 30 บาท&lt;/span&gt;" style="rhombus;whiteSpace=wrap;html=1;" parent="1" vertex="1">
          <mxGeometry x="1886" y="-630" width="140" height="110" as="geometry" />
        </mxCell>
        <mxCell id="yrHQgA5anK2MkfYK_7r1-90" value="" style="endArrow=none;html=1;rounded=0;" parent="1" edge="1">
          <mxGeometry width="50" height="50" relative="1" as="geometry">
            <mxPoint x="1955.8" y="-499" as="sourcePoint" />
            <mxPoint x="1955.8600000000001" y="-520" as="targetPoint" />
          </mxGeometry>
        </mxCell>
        <mxCell id="yrHQgA5anK2MkfYK_7r1-91" value="" style="endArrow=classic;html=1;rounded=0;" parent="1" edge="1">
          <mxGeometry width="50" height="50" relative="1" as="geometry">
            <mxPoint x="1956" y="-500" as="sourcePoint" />
            <mxPoint x="1912" y="-460" as="targetPoint" />
            <Array as="points">
              <mxPoint x="1911" y="-499" />
            </Array>
          </mxGeometry>
        </mxCell>
        <mxCell id="yrHQgA5anK2MkfYK_7r1-92" value="จริง" style="edgeLabel;html=1;align=center;verticalAlign=middle;resizable=0;points=[];" parent="yrHQgA5anK2MkfYK_7r1-91" vertex="1" connectable="0">
          <mxGeometry x="-0.308" y="-1" relative="1" as="geometry">
            <mxPoint as="offset" />
          </mxGeometry>
        </mxCell>
        <mxCell id="yrHQgA5anK2MkfYK_7r1-93" value="&lt;div style=&quot;text-align: left;&quot;&gt;&lt;span style=&quot;background-color: transparent; color: light-dark(rgb(0, 0, 0), rgb(255, 255, 255)); text-wrap-mode: nowrap;&quot;&gt;&lt;font face=&quot;Sarabun&quot;&gt;ตรวจสอบสินค้า&lt;/font&gt;&lt;/span&gt;&lt;/div&gt;&lt;div style=&quot;&quot;&gt;&lt;span style=&quot;background-color: transparent; color: light-dark(rgb(0, 0, 0), rgb(255, 255, 255)); text-wrap-mode: nowrap;&quot;&gt;&lt;font face=&quot;Sarabun&quot;&gt;มีหรือไม่&lt;/font&gt;&lt;/span&gt;&lt;/div&gt;" style="rhombus;whiteSpace=wrap;html=1;" parent="1" vertex="1">
          <mxGeometry x="1841" y="-319" width="140" height="110" as="geometry" />
        </mxCell>
        <mxCell id="yrHQgA5anK2MkfYK_7r1-94" value="" style="endArrow=classic;html=1;rounded=0;" parent="1" edge="1">
          <mxGeometry width="50" height="50" relative="1" as="geometry">
            <mxPoint x="1910.4099999999999" y="-209" as="sourcePoint" />
            <mxPoint x="1911" y="-170" as="targetPoint" />
          </mxGeometry>
        </mxCell>
        <mxCell id="yrHQgA5anK2MkfYK_7r1-95" value="จริง" style="edgeLabel;html=1;align=center;verticalAlign=middle;resizable=0;points=[];" parent="yrHQgA5anK2MkfYK_7r1-94" vertex="1" connectable="0">
          <mxGeometry x="0.0837" y="-2" relative="1" as="geometry">
            <mxPoint as="offset" />
          </mxGeometry>
        </mxCell>
        <mxCell id="yrHQgA5anK2MkfYK_7r1-96" style="edgeStyle=orthogonalEdgeStyle;rounded=0;orthogonalLoop=1;jettySize=auto;html=1;exitX=0.5;exitY=1;exitDx=0;exitDy=0;" parent="1" source="yrHQgA5anK2MkfYK_7r1-97" edge="1">
          <mxGeometry relative="1" as="geometry">
            <mxPoint x="1911" y="-30" as="targetPoint" />
          </mxGeometry>
        </mxCell>
        <mxCell id="yrHQgA5anK2MkfYK_7r1-97" value="&lt;font&gt;เหลือสินค้า&lt;/font&gt;" style="rounded=0;whiteSpace=wrap;html=1;" parent="1" vertex="1">
          <mxGeometry x="1861" y="-169" width="100" height="60" as="geometry" />
        </mxCell>
        <mxCell id="yrHQgA5anK2MkfYK_7r1-98" value="" style="endArrow=classic;html=1;rounded=0;exitX=1;exitY=0.5;exitDx=0;exitDy=0;entryX=0.5;entryY=0;entryDx=0;entryDy=0;" parent="1" source="yrHQgA5anK2MkfYK_7r1-93" target="yrHQgA5anK2MkfYK_7r1-100" edge="1">
          <mxGeometry width="50" height="50" relative="1" as="geometry">
            <mxPoint x="1981" y="-269" as="sourcePoint" />
            <mxPoint x="2091" y="-169" as="targetPoint" />
            <Array as="points">
              <mxPoint x="2130" y="-264" />
            </Array>
          </mxGeometry>
        </mxCell>
        <mxCell id="yrHQgA5anK2MkfYK_7r1-99" value="เท็จ" style="edgeLabel;html=1;align=center;verticalAlign=middle;resizable=0;points=[];" parent="yrHQgA5anK2MkfYK_7r1-98" vertex="1" connectable="0">
          <mxGeometry x="0.4973" y="-1" relative="1" as="geometry">
            <mxPoint as="offset" />
          </mxGeometry>
        </mxCell>
        <mxCell id="yrHQgA5anK2MkfYK_7r1-100" value="สินค้าหมด" style="rounded=0;whiteSpace=wrap;html=1;" parent="1" vertex="1">
          <mxGeometry x="2080" y="-169" width="100" height="60" as="geometry" />
        </mxCell>
        <mxCell id="yrHQgA5anK2MkfYK_7r1-101" value="&lt;div style=&quot;&quot;&gt;&lt;font face=&quot;Sarabun&quot;&gt;&lt;span style=&quot;text-wrap-mode: nowrap;&quot;&gt;จำนวนที่เลือก &amp;gt;&amp;nbsp;&lt;/span&gt;&lt;/font&gt;&lt;span style=&quot;text-wrap-mode: nowrap; font-family: Sarabun; background-color: transparent; color: light-dark(rgb(0, 0, 0), rgb(255, 255, 255));&quot;&gt;จำนวน&lt;/span&gt;&lt;/div&gt;&lt;div style=&quot;&quot;&gt;&lt;span style=&quot;text-wrap-mode: nowrap; font-family: Sarabun; background-color: transparent; color: light-dark(rgb(0, 0, 0), rgb(255, 255, 255));&quot;&gt;คงเหลือ&lt;/span&gt;&lt;/div&gt;" style="rhombus;whiteSpace=wrap;html=1;" parent="1" vertex="1">
          <mxGeometry x="1831" y="61" width="160" height="110" as="geometry" />
        </mxCell>
        <mxCell id="yrHQgA5anK2MkfYK_7r1-102" value="" style="endArrow=classic;html=1;rounded=0;exitX=0;exitY=0.5;exitDx=0;exitDy=0;" parent="1" source="yrHQgA5anK2MkfYK_7r1-101" edge="1">
          <mxGeometry width="50" height="50" relative="1" as="geometry">
            <mxPoint x="1831" y="111" as="sourcePoint" />
            <mxPoint x="1731" y="191" as="targetPoint" />
            <Array as="points">
              <mxPoint x="1731" y="116" />
            </Array>
          </mxGeometry>
        </mxCell>
        <mxCell id="yrHQgA5anK2MkfYK_7r1-103" value="จริง" style="edgeLabel;html=1;align=center;verticalAlign=middle;resizable=0;points=[];" parent="yrHQgA5anK2MkfYK_7r1-102" vertex="1" connectable="0">
          <mxGeometry x="0.4514" y="1" relative="1" as="geometry">
            <mxPoint as="offset" />
          </mxGeometry>
        </mxCell>
        <mxCell id="yrHQgA5anK2MkfYK_7r1-104" value="&lt;font&gt;สินค้าคงเหลือ&lt;/font&gt;" style="rounded=0;whiteSpace=wrap;html=1;" parent="1" vertex="1">
          <mxGeometry x="1671" y="191" width="110" height="60" as="geometry" />
        </mxCell>
        <mxCell id="yrHQgA5anK2MkfYK_7r1-105" value="แสดงข้อความ&lt;div&gt;จำนวนสินค้าคงเหลือ&lt;/div&gt;&lt;div&gt;ไม่พอ&lt;/div&gt;" style="rounded=0;whiteSpace=wrap;html=1;" parent="1" vertex="1">
          <mxGeometry x="1856" y="251" width="110" height="60" as="geometry" />
        </mxCell>
        <mxCell id="yrHQgA5anK2MkfYK_7r1-106" value="" style="endArrow=classic;html=1;rounded=0;" parent="1" edge="1">
          <mxGeometry width="50" height="50" relative="1" as="geometry">
            <mxPoint x="1910.6" y="171" as="sourcePoint" />
            <mxPoint x="1911" y="251" as="targetPoint" />
          </mxGeometry>
        </mxCell>
        <mxCell id="yrHQgA5anK2MkfYK_7r1-107" value="เท็จ" style="edgeLabel;html=1;align=center;verticalAlign=middle;resizable=0;points=[];" parent="yrHQgA5anK2MkfYK_7r1-106" vertex="1" connectable="0">
          <mxGeometry x="-0.1373" y="2" relative="1" as="geometry">
            <mxPoint as="offset" />
          </mxGeometry>
        </mxCell>
        <mxCell id="yrHQgA5anK2MkfYK_7r1-108" value="&lt;font&gt;เลือกจำนวนสินค้า&lt;/font&gt;" style="rounded=0;whiteSpace=wrap;html=1;" parent="1" vertex="1">
          <mxGeometry x="1861" y="-29" width="110" height="60" as="geometry" />
        </mxCell>
        <mxCell id="yrHQgA5anK2MkfYK_7r1-109" value="&lt;font&gt;เลือกสินค้า&lt;/font&gt;" style="rounded=0;whiteSpace=wrap;html=1;" parent="1" vertex="1">
          <mxGeometry x="1871" y="-459" width="100" height="60" as="geometry" />
        </mxCell>
        <mxCell id="yrHQgA5anK2MkfYK_7r1-110" value="" style="endArrow=classic;html=1;rounded=0;entryX=0.5;entryY=0;entryDx=0;entryDy=0;" parent="1" edge="1">
          <mxGeometry width="50" height="50" relative="1" as="geometry">
            <mxPoint x="1911" y="-399" as="sourcePoint" />
            <mxPoint x="1911.71" y="-320" as="targetPoint" />
          </mxGeometry>
        </mxCell>
        <mxCell id="yrHQgA5anK2MkfYK_7r1-111" value="" style="endArrow=classic;html=1;rounded=0;" parent="1" edge="1">
          <mxGeometry width="50" height="50" relative="1" as="geometry">
            <mxPoint x="1911" y="30" as="sourcePoint" />
            <mxPoint x="1911" y="61" as="targetPoint" />
          </mxGeometry>
        </mxCell>
        <mxCell id="yrHQgA5anK2MkfYK_7r1-112" value="" style="endArrow=classic;html=1;rounded=0;" parent="1" edge="1">
          <mxGeometry width="50" height="50" relative="1" as="geometry">
            <mxPoint x="1730.52" y="251" as="sourcePoint" />
            <mxPoint x="1730.92" y="331" as="targetPoint" />
          </mxGeometry>
        </mxCell>
        <mxCell id="yrHQgA5anK2MkfYK_7r1-113" value="รับสินค้า" style="shape=parallelogram;perimeter=parallelogramPerimeter;whiteSpace=wrap;html=1;fixedSize=1;" parent="1" vertex="1">
          <mxGeometry x="1671" y="331" width="120" height="60" as="geometry" />
        </mxCell>
        <mxCell id="yrHQgA5anK2MkfYK_7r1-114" value="&lt;span style=&quot;font-family: Sarabun; font-size: 14px; text-align: left; text-wrap-mode: nowrap;&quot;&gt;&amp;nbsp;ลาเต้ หวานเจี๊ยบ&amp;nbsp;&lt;/span&gt;&lt;div&gt;&lt;span style=&quot;font-family: Sarabun; font-size: 14px; text-align: left; text-wrap-mode: nowrap;&quot;&gt;35 บาท&lt;/span&gt;&lt;/div&gt;" style="rhombus;whiteSpace=wrap;html=1;" parent="1" vertex="1">
          <mxGeometry x="2376" y="-440" width="140" height="110" as="geometry" />
        </mxCell>
        <mxCell id="yrHQgA5anK2MkfYK_7r1-115" value="" style="endArrow=classic;html=1;rounded=0;" parent="1" edge="1">
          <mxGeometry width="50" height="50" relative="1" as="geometry">
            <mxPoint x="2446" y="-280" as="sourcePoint" />
            <mxPoint x="2402" y="-240" as="targetPoint" />
            <Array as="points">
              <mxPoint x="2401" y="-279" />
            </Array>
          </mxGeometry>
        </mxCell>
        <mxCell id="yrHQgA5anK2MkfYK_7r1-116" value="จริง" style="edgeLabel;html=1;align=center;verticalAlign=middle;resizable=0;points=[];" parent="yrHQgA5anK2MkfYK_7r1-115" vertex="1" connectable="0">
          <mxGeometry x="-0.308" y="-1" relative="1" as="geometry">
            <mxPoint as="offset" />
          </mxGeometry>
        </mxCell>
        <mxCell id="yrHQgA5anK2MkfYK_7r1-117" value="&lt;div style=&quot;text-align: left;&quot;&gt;&lt;span style=&quot;background-color: transparent; color: light-dark(rgb(0, 0, 0), rgb(255, 255, 255)); text-wrap-mode: nowrap;&quot;&gt;&lt;font face=&quot;Sarabun&quot;&gt;ตรวจสอบสินค้า&lt;/font&gt;&lt;/span&gt;&lt;/div&gt;&lt;div style=&quot;&quot;&gt;&lt;span style=&quot;background-color: transparent; color: light-dark(rgb(0, 0, 0), rgb(255, 255, 255)); text-wrap-mode: nowrap;&quot;&gt;&lt;font face=&quot;Sarabun&quot;&gt;มีหรือไม่&lt;/font&gt;&lt;/span&gt;&lt;/div&gt;" style="rhombus;whiteSpace=wrap;html=1;" parent="1" vertex="1">
          <mxGeometry x="2331" y="-108" width="140" height="110" as="geometry" />
        </mxCell>
        <mxCell id="yrHQgA5anK2MkfYK_7r1-118" value="" style="endArrow=classic;html=1;rounded=0;entryX=0.5;entryY=0;entryDx=0;entryDy=0;" parent="1" target="yrHQgA5anK2MkfYK_7r1-122" edge="1">
          <mxGeometry width="50" height="50" relative="1" as="geometry">
            <mxPoint x="2400.41" y="2" as="sourcePoint" />
            <mxPoint x="2401" y="52" as="targetPoint" />
          </mxGeometry>
        </mxCell>
        <mxCell id="yrHQgA5anK2MkfYK_7r1-119" value="จริง" style="edgeLabel;html=1;align=center;verticalAlign=middle;resizable=0;points=[];" parent="yrHQgA5anK2MkfYK_7r1-118" vertex="1" connectable="0">
          <mxGeometry x="-0.2642" y="-1" relative="1" as="geometry">
            <mxPoint as="offset" />
          </mxGeometry>
        </mxCell>
        <mxCell id="yrHQgA5anK2MkfYK_7r1-120" style="edgeStyle=orthogonalEdgeStyle;rounded=0;orthogonalLoop=1;jettySize=auto;html=1;exitX=0.5;exitY=1;exitDx=0;exitDy=0;" parent="1" edge="1">
          <mxGeometry relative="1" as="geometry">
            <mxPoint x="2401.2758620689656" y="140.00000000000045" as="targetPoint" />
            <mxPoint x="2401" y="141" as="sourcePoint" />
          </mxGeometry>
        </mxCell>
        <mxCell id="yrHQgA5anK2MkfYK_7r1-121" style="edgeStyle=orthogonalEdgeStyle;rounded=0;orthogonalLoop=1;jettySize=auto;html=1;" parent="1" source="yrHQgA5anK2MkfYK_7r1-122" edge="1">
          <mxGeometry relative="1" as="geometry">
            <mxPoint x="2401" y="170" as="targetPoint" />
          </mxGeometry>
        </mxCell>
        <mxCell id="yrHQgA5anK2MkfYK_7r1-122" value="&lt;font&gt;เหลือสินค้า&lt;/font&gt;" style="rounded=0;whiteSpace=wrap;html=1;" parent="1" vertex="1">
          <mxGeometry x="2351" y="50" width="100" height="60" as="geometry" />
        </mxCell>
        <mxCell id="yrHQgA5anK2MkfYK_7r1-123" value="" style="endArrow=classic;html=1;rounded=0;exitX=1;exitY=0.5;exitDx=0;exitDy=0;" parent="1" source="yrHQgA5anK2MkfYK_7r1-117" edge="1">
          <mxGeometry width="50" height="50" relative="1" as="geometry">
            <mxPoint x="2531" y="-59" as="sourcePoint" />
            <mxPoint x="2641" y="41" as="targetPoint" />
            <Array as="points">
              <mxPoint x="2641" y="-50" />
            </Array>
          </mxGeometry>
        </mxCell>
        <mxCell id="yrHQgA5anK2MkfYK_7r1-124" value="เท็จ" style="edgeLabel;html=1;align=center;verticalAlign=middle;resizable=0;points=[];" parent="yrHQgA5anK2MkfYK_7r1-123" vertex="1" connectable="0">
          <mxGeometry x="-0.4249" y="1" relative="1" as="geometry">
            <mxPoint as="offset" />
          </mxGeometry>
        </mxCell>
        <mxCell id="yrHQgA5anK2MkfYK_7r1-125" value="สินค้าหมด" style="rounded=0;whiteSpace=wrap;html=1;" parent="1" vertex="1">
          <mxGeometry x="2590" y="42" width="100" height="60" as="geometry" />
        </mxCell>
        <mxCell id="yrHQgA5anK2MkfYK_7r1-126" value="&lt;div style=&quot;&quot;&gt;&lt;font face=&quot;Sarabun&quot;&gt;&lt;span style=&quot;text-wrap-mode: nowrap;&quot;&gt;จำนวนที่เลือก&amp;gt;&lt;/span&gt;&lt;/font&gt;&lt;span style=&quot;text-wrap-mode: nowrap; font-family: Sarabun; background-color: transparent; color: light-dark(rgb(0, 0, 0), rgb(255, 255, 255));&quot;&gt;จำนวน&lt;/span&gt;&lt;/div&gt;&lt;div style=&quot;&quot;&gt;&lt;span style=&quot;text-wrap-mode: nowrap; font-family: Sarabun; background-color: transparent; color: light-dark(rgb(0, 0, 0), rgb(255, 255, 255));&quot;&gt;คงเหลือ&lt;/span&gt;&lt;/div&gt;" style="rhombus;whiteSpace=wrap;html=1;" parent="1" vertex="1">
          <mxGeometry x="2321" y="272" width="160" height="110" as="geometry" />
        </mxCell>
        <mxCell id="yrHQgA5anK2MkfYK_7r1-127" value="" style="endArrow=classic;html=1;rounded=0;exitX=0;exitY=0.5;exitDx=0;exitDy=0;" parent="1" source="yrHQgA5anK2MkfYK_7r1-126" edge="1">
          <mxGeometry width="50" height="50" relative="1" as="geometry">
            <mxPoint x="2321" y="322" as="sourcePoint" />
            <mxPoint x="2221" y="402" as="targetPoint" />
            <Array as="points">
              <mxPoint x="2221" y="327" />
            </Array>
          </mxGeometry>
        </mxCell>
        <mxCell id="yrHQgA5anK2MkfYK_7r1-128" value="จริง" style="edgeLabel;html=1;align=center;verticalAlign=middle;resizable=0;points=[];" parent="yrHQgA5anK2MkfYK_7r1-127" vertex="1" connectable="0">
          <mxGeometry x="-0.3486" relative="1" as="geometry">
            <mxPoint as="offset" />
          </mxGeometry>
        </mxCell>
        <mxCell id="yrHQgA5anK2MkfYK_7r1-129" value="&lt;font&gt;สินค้าคงเหลือ&lt;/font&gt;" style="rounded=0;whiteSpace=wrap;html=1;" parent="1" vertex="1">
          <mxGeometry x="2161" y="402" width="110" height="60" as="geometry" />
        </mxCell>
        <mxCell id="yrHQgA5anK2MkfYK_7r1-130" value="แสดงข้อความ&lt;div&gt;จำนวนสินค้าคงเหลือ&lt;/div&gt;&lt;div&gt;ไม่พอ&lt;/div&gt;" style="rounded=0;whiteSpace=wrap;html=1;" parent="1" vertex="1">
          <mxGeometry x="2346" y="462" width="110" height="60" as="geometry" />
        </mxCell>
        <mxCell id="yrHQgA5anK2MkfYK_7r1-131" value="" style="endArrow=classic;html=1;rounded=0;" parent="1" edge="1">
          <mxGeometry width="50" height="50" relative="1" as="geometry">
            <mxPoint x="2400.6" y="382" as="sourcePoint" />
            <mxPoint x="2401" y="462" as="targetPoint" />
          </mxGeometry>
        </mxCell>
        <mxCell id="yrHQgA5anK2MkfYK_7r1-132" value="เท็จ" style="edgeLabel;html=1;align=center;verticalAlign=middle;resizable=0;points=[];" parent="yrHQgA5anK2MkfYK_7r1-131" vertex="1" connectable="0">
          <mxGeometry x="-0.26" relative="1" as="geometry">
            <mxPoint as="offset" />
          </mxGeometry>
        </mxCell>
        <mxCell id="yrHQgA5anK2MkfYK_7r1-133" value="&lt;font&gt;เลือกจำนวนสินค้า&lt;/font&gt;" style="rounded=0;whiteSpace=wrap;html=1;" parent="1" vertex="1">
          <mxGeometry x="2351" y="171" width="110" height="60" as="geometry" />
        </mxCell>
        <mxCell id="yrHQgA5anK2MkfYK_7r1-134" value="&lt;font&gt;เลือกสินค้า&lt;/font&gt;" style="rounded=0;whiteSpace=wrap;html=1;" parent="1" vertex="1">
          <mxGeometry x="2361" y="-239" width="100" height="60" as="geometry" />
        </mxCell>
        <mxCell id="yrHQgA5anK2MkfYK_7r1-135" value="" style="endArrow=classic;html=1;rounded=0;entryX=0.5;entryY=0;entryDx=0;entryDy=0;" parent="1" edge="1">
          <mxGeometry width="50" height="50" relative="1" as="geometry">
            <mxPoint x="2402" y="-180" as="sourcePoint" />
            <mxPoint x="2401.71" y="-109" as="targetPoint" />
          </mxGeometry>
        </mxCell>
        <mxCell id="yrHQgA5anK2MkfYK_7r1-136" value="" style="endArrow=classic;html=1;rounded=0;" parent="1" edge="1">
          <mxGeometry width="50" height="50" relative="1" as="geometry">
            <mxPoint x="2400" y="230" as="sourcePoint" />
            <mxPoint x="2401" y="272" as="targetPoint" />
          </mxGeometry>
        </mxCell>
        <mxCell id="yrHQgA5anK2MkfYK_7r1-137" value="" style="endArrow=classic;html=1;rounded=0;" parent="1" edge="1">
          <mxGeometry width="50" height="50" relative="1" as="geometry">
            <mxPoint x="2220.52" y="462" as="sourcePoint" />
            <mxPoint x="2220.92" y="542" as="targetPoint" />
          </mxGeometry>
        </mxCell>
        <mxCell id="yrHQgA5anK2MkfYK_7r1-138" value="รับสินค้า" style="shape=parallelogram;perimeter=parallelogramPerimeter;whiteSpace=wrap;html=1;fixedSize=1;" parent="1" vertex="1">
          <mxGeometry x="2156" y="542" width="120" height="60" as="geometry" />
        </mxCell>
        <mxCell id="yrHQgA5anK2MkfYK_7r1-139" value="" style="endArrow=none;html=1;rounded=0;entryX=0.5;entryY=1;entryDx=0;entryDy=0;" parent="1" target="yrHQgA5anK2MkfYK_7r1-114" edge="1">
          <mxGeometry width="50" height="50" relative="1" as="geometry">
            <mxPoint x="2446" y="-280" as="sourcePoint" />
            <mxPoint x="2436" y="-300" as="targetPoint" />
          </mxGeometry>
        </mxCell>
        <mxCell id="yrHQgA5anK2MkfYK_7r1-140" value="" style="endArrow=none;html=1;rounded=0;" parent="1" edge="1">
          <mxGeometry width="50" height="50" relative="1" as="geometry">
            <mxPoint x="1659" y="861" as="sourcePoint" />
            <mxPoint x="1659" y="-349" as="targetPoint" />
          </mxGeometry>
        </mxCell>
        <mxCell id="yrHQgA5anK2MkfYK_7r1-141" value="" style="endArrow=none;html=1;rounded=0;entryX=0.5;entryY=1;entryDx=0;entryDy=0;" parent="1" edge="1">
          <mxGeometry width="50" height="50" relative="1" as="geometry">
            <mxPoint x="2129.5" y="860" as="sourcePoint" />
            <mxPoint x="2129.67" y="-108" as="targetPoint" />
          </mxGeometry>
        </mxCell>
        <mxCell id="yrHQgA5anK2MkfYK_7r1-142" value="" style="endArrow=none;html=1;rounded=0;entryX=0.5;entryY=1;entryDx=0;entryDy=0;" parent="1" edge="1">
          <mxGeometry width="50" height="50" relative="1" as="geometry">
            <mxPoint x="2639.41" y="860" as="sourcePoint" />
            <mxPoint x="2639.58" y="102" as="targetPoint" />
          </mxGeometry>
        </mxCell>
        <mxCell id="yrHQgA5anK2MkfYK_7r1-143" value="" style="endArrow=classic;html=1;rounded=0;entryX=0.5;entryY=0;entryDx=0;entryDy=0;" parent="1" edge="1">
          <mxGeometry width="50" height="50" relative="1" as="geometry">
            <mxPoint x="390" y="-1140" as="sourcePoint" />
            <mxPoint x="390.71000000000004" y="-1061" as="targetPoint" />
          </mxGeometry>
        </mxCell>
        <mxCell id="yrHQgA5anK2MkfYK_7r1-144" style="edgeStyle=orthogonalEdgeStyle;rounded=0;orthogonalLoop=1;jettySize=auto;html=1;exitX=0;exitY=0.5;exitDx=0;exitDy=0;" parent="1" source="yrHQgA5anK2MkfYK_7r1-146" edge="1">
          <mxGeometry relative="1" as="geometry">
            <mxPoint x="-130" y="-860" as="targetPoint" />
          </mxGeometry>
        </mxCell>
        <mxCell id="yrHQgA5anK2MkfYK_7r1-145" value="เท็จ" style="edgeLabel;html=1;align=center;verticalAlign=middle;resizable=0;points=[];" parent="yrHQgA5anK2MkfYK_7r1-144" vertex="1" connectable="0">
          <mxGeometry x="0.0203" relative="1" as="geometry">
            <mxPoint as="offset" />
          </mxGeometry>
        </mxCell>
        <mxCell id="yrHQgA5anK2MkfYK_7r1-146" value="&lt;span style=&quot;font-family: Sarabun; font-size: 14px; text-align: left; text-wrap-mode: nowrap;&quot;&gt;เมล็ดทานตะวัน&amp;nbsp;&lt;/span&gt;&lt;div&gt;&lt;span style=&quot;font-family: Sarabun; font-size: 14px; text-align: left; text-wrap-mode: nowrap;&quot;&gt;13 บาท&lt;/span&gt;&lt;/div&gt;" style="rhombus;whiteSpace=wrap;html=1;" parent="1" vertex="1">
          <mxGeometry x="330" y="-1060" width="120" height="100" as="geometry" />
        </mxCell>
        <mxCell id="yrHQgA5anK2MkfYK_7r1-147" value="" style="endArrow=none;html=1;rounded=0;" parent="1" edge="1">
          <mxGeometry width="50" height="50" relative="1" as="geometry">
            <mxPoint x="391" y="-939" as="sourcePoint" />
            <mxPoint x="391.05999999999995" y="-960" as="targetPoint" />
          </mxGeometry>
        </mxCell>
        <mxCell id="yrHQgA5anK2MkfYK_7r1-148" value="" style="endArrow=classic;html=1;rounded=0;" parent="1" edge="1">
          <mxGeometry width="50" height="50" relative="1" as="geometry">
            <mxPoint x="391" y="-939" as="sourcePoint" />
            <mxPoint x="342" y="-900" as="targetPoint" />
            <Array as="points">
              <mxPoint x="341" y="-939" />
            </Array>
          </mxGeometry>
        </mxCell>
        <mxCell id="yrHQgA5anK2MkfYK_7r1-149" value="จริง" style="edgeLabel;html=1;align=center;verticalAlign=middle;resizable=0;points=[];" parent="yrHQgA5anK2MkfYK_7r1-148" vertex="1" connectable="0">
          <mxGeometry x="-0.308" y="-1" relative="1" as="geometry">
            <mxPoint as="offset" />
          </mxGeometry>
        </mxCell>
        <mxCell id="yrHQgA5anK2MkfYK_7r1-150" value="&lt;div style=&quot;text-align: left;&quot;&gt;&lt;span style=&quot;background-color: transparent; color: light-dark(rgb(0, 0, 0), rgb(255, 255, 255)); text-wrap-mode: nowrap;&quot;&gt;&lt;font face=&quot;Sarabun&quot;&gt;ตรวจสอบสินค้า&lt;/font&gt;&lt;/span&gt;&lt;/div&gt;&lt;div style=&quot;&quot;&gt;&lt;span style=&quot;background-color: transparent; color: light-dark(rgb(0, 0, 0), rgb(255, 255, 255)); text-wrap-mode: nowrap;&quot;&gt;&lt;font face=&quot;Sarabun&quot;&gt;มีหรือไม่&lt;/font&gt;&lt;/span&gt;&lt;/div&gt;" style="rhombus;whiteSpace=wrap;html=1;" parent="1" vertex="1">
          <mxGeometry x="271" y="-759" width="140" height="110" as="geometry" />
        </mxCell>
        <mxCell id="yrHQgA5anK2MkfYK_7r1-151" value="" style="endArrow=classic;html=1;rounded=0;" parent="1" edge="1">
          <mxGeometry width="50" height="50" relative="1" as="geometry">
            <mxPoint x="340.40999999999985" y="-649" as="sourcePoint" />
            <mxPoint x="341" y="-599" as="targetPoint" />
          </mxGeometry>
        </mxCell>
        <mxCell id="yrHQgA5anK2MkfYK_7r1-152" value="จริง" style="edgeLabel;html=1;align=center;verticalAlign=middle;resizable=0;points=[];" parent="yrHQgA5anK2MkfYK_7r1-151" vertex="1" connectable="0">
          <mxGeometry x="-0.0731" y="-1" relative="1" as="geometry">
            <mxPoint as="offset" />
          </mxGeometry>
        </mxCell>
        <mxCell id="yrHQgA5anK2MkfYK_7r1-153" value="&lt;font&gt;เหลือสินค้า&lt;/font&gt;" style="rounded=0;whiteSpace=wrap;html=1;" parent="1" vertex="1">
          <mxGeometry x="291" y="-599" width="100" height="60" as="geometry" />
        </mxCell>
        <mxCell id="yrHQgA5anK2MkfYK_7r1-154" value="" style="endArrow=classic;html=1;rounded=0;entryX=0.5;entryY=0;entryDx=0;entryDy=0;exitX=1;exitY=0.5;exitDx=0;exitDy=0;" parent="1" source="yrHQgA5anK2MkfYK_7r1-150" target="yrHQgA5anK2MkfYK_7r1-157" edge="1">
          <mxGeometry width="50" height="50" relative="1" as="geometry">
            <mxPoint x="411" y="-709" as="sourcePoint" />
            <mxPoint x="521" y="-609" as="targetPoint" />
            <Array as="points">
              <mxPoint x="540" y="-704" />
            </Array>
          </mxGeometry>
        </mxCell>
        <mxCell id="yrHQgA5anK2MkfYK_7r1-155" value="เท็จ" style="edgeLabel;html=1;align=center;verticalAlign=middle;resizable=0;points=[];" parent="yrHQgA5anK2MkfYK_7r1-154" vertex="1" connectable="0">
          <mxGeometry x="-0.1866" y="1" relative="1" as="geometry">
            <mxPoint as="offset" />
          </mxGeometry>
        </mxCell>
        <mxCell id="yrHQgA5anK2MkfYK_7r1-156" style="edgeStyle=orthogonalEdgeStyle;rounded=0;orthogonalLoop=1;jettySize=auto;html=1;exitX=0.25;exitY=1;exitDx=0;exitDy=0;entryX=0;entryY=0.5;entryDx=0;entryDy=0;entryPerimeter=0;" parent="1" source="yrHQgA5anK2MkfYK_7r1-157" target="yrHQgA5anK2MkfYK_7r1-40" edge="1">
          <mxGeometry relative="1" as="geometry">
            <mxPoint x="300" y="-1350" as="targetPoint" />
            <Array as="points">
              <mxPoint x="540" y="-549" />
              <mxPoint x="540" y="860" />
              <mxPoint x="-1170" y="860" />
              <mxPoint x="-1170" y="-1370" />
            </Array>
          </mxGeometry>
        </mxCell>
        <mxCell id="yrHQgA5anK2MkfYK_7r1-157" value="สินค้าหมด" style="rounded=0;whiteSpace=wrap;html=1;" parent="1" vertex="1">
          <mxGeometry x="490" y="-609" width="100" height="60" as="geometry" />
        </mxCell>
        <mxCell id="yrHQgA5anK2MkfYK_7r1-158" value="" style="endArrow=classic;html=1;rounded=0;" parent="1" edge="1">
          <mxGeometry width="50" height="50" relative="1" as="geometry">
            <mxPoint x="340.28999999999996" y="-539" as="sourcePoint" />
            <mxPoint x="340.8800000000001" y="-489" as="targetPoint" />
          </mxGeometry>
        </mxCell>
        <mxCell id="yrHQgA5anK2MkfYK_7r1-159" value="&lt;div style=&quot;&quot;&gt;&lt;font face=&quot;Sarabun&quot;&gt;&lt;span style=&quot;text-wrap-mode: nowrap;&quot;&gt;จำนวนที่เลือก&amp;gt;&lt;/span&gt;&lt;/font&gt;&lt;span style=&quot;text-wrap-mode: nowrap; font-family: Sarabun; background-color: transparent; color: light-dark(rgb(0, 0, 0), rgb(255, 255, 255));&quot;&gt;จำนวน&lt;/span&gt;&lt;/div&gt;&lt;div style=&quot;&quot;&gt;&lt;span style=&quot;text-wrap-mode: nowrap; font-family: Sarabun; background-color: transparent; color: light-dark(rgb(0, 0, 0), rgb(255, 255, 255));&quot;&gt;คงเหลือ&lt;/span&gt;&lt;/div&gt;" style="rhombus;whiteSpace=wrap;html=1;" parent="1" vertex="1">
          <mxGeometry x="261" y="-379" width="160" height="110" as="geometry" />
        </mxCell>
        <mxCell id="yrHQgA5anK2MkfYK_7r1-160" value="" style="endArrow=classic;html=1;rounded=0;exitX=0;exitY=0.5;exitDx=0;exitDy=0;" parent="1" source="yrHQgA5anK2MkfYK_7r1-159" edge="1">
          <mxGeometry width="50" height="50" relative="1" as="geometry">
            <mxPoint x="261" y="-329" as="sourcePoint" />
            <mxPoint x="161" y="-249" as="targetPoint" />
            <Array as="points">
              <mxPoint x="161" y="-324" />
            </Array>
          </mxGeometry>
        </mxCell>
        <mxCell id="yrHQgA5anK2MkfYK_7r1-161" value="จริง" style="edgeLabel;html=1;align=center;verticalAlign=middle;resizable=0;points=[];" parent="yrHQgA5anK2MkfYK_7r1-160" vertex="1" connectable="0">
          <mxGeometry x="-0.0895" y="-1" relative="1" as="geometry">
            <mxPoint as="offset" />
          </mxGeometry>
        </mxCell>
        <mxCell id="yrHQgA5anK2MkfYK_7r1-162" value="&lt;font&gt;สินค้าคงเหลือ&lt;/font&gt;" style="rounded=0;whiteSpace=wrap;html=1;" parent="1" vertex="1">
          <mxGeometry x="101" y="-249" width="110" height="60" as="geometry" />
        </mxCell>
        <mxCell id="yrHQgA5anK2MkfYK_7r1-163" value="แสดงข้อความ&lt;div&gt;จำนวนสินค้าคงเหลือ&lt;/div&gt;&lt;div&gt;ไม่พอ&lt;/div&gt;" style="rounded=0;whiteSpace=wrap;html=1;" parent="1" vertex="1">
          <mxGeometry x="286" y="-189" width="110" height="60" as="geometry" />
        </mxCell>
        <mxCell id="yrHQgA5anK2MkfYK_7r1-164" value="" style="endArrow=classic;html=1;rounded=0;" parent="1" edge="1">
          <mxGeometry width="50" height="50" relative="1" as="geometry">
            <mxPoint x="340.5999999999999" y="-269" as="sourcePoint" />
            <mxPoint x="341" y="-189" as="targetPoint" />
          </mxGeometry>
        </mxCell>
        <mxCell id="yrHQgA5anK2MkfYK_7r1-165" value="เท็จ" style="edgeLabel;html=1;align=center;verticalAlign=middle;resizable=0;points=[];" parent="yrHQgA5anK2MkfYK_7r1-164" vertex="1" connectable="0">
          <mxGeometry x="-0.0154" y="1" relative="1" as="geometry">
            <mxPoint as="offset" />
          </mxGeometry>
        </mxCell>
        <mxCell id="yrHQgA5anK2MkfYK_7r1-166" value="&lt;font&gt;เลือกจำนวนสินค้า&lt;/font&gt;" style="rounded=0;whiteSpace=wrap;html=1;" parent="1" vertex="1">
          <mxGeometry x="291" y="-489" width="110" height="60" as="geometry" />
        </mxCell>
        <mxCell id="yrHQgA5anK2MkfYK_7r1-167" value="&lt;font&gt;เลือกสินค้า&lt;/font&gt;" style="rounded=0;whiteSpace=wrap;html=1;" parent="1" vertex="1">
          <mxGeometry x="301" y="-899" width="100" height="60" as="geometry" />
        </mxCell>
        <mxCell id="yrHQgA5anK2MkfYK_7r1-168" value="" style="endArrow=classic;html=1;rounded=0;entryX=0.5;entryY=0;entryDx=0;entryDy=0;" parent="1" edge="1">
          <mxGeometry width="50" height="50" relative="1" as="geometry">
            <mxPoint x="341" y="-839" as="sourcePoint" />
            <mxPoint x="341.71000000000004" y="-760" as="targetPoint" />
          </mxGeometry>
        </mxCell>
        <mxCell id="yrHQgA5anK2MkfYK_7r1-169" value="" style="endArrow=classic;html=1;rounded=0;" parent="1" edge="1">
          <mxGeometry width="50" height="50" relative="1" as="geometry">
            <mxPoint x="340.40999999999985" y="-429" as="sourcePoint" />
            <mxPoint x="341" y="-379" as="targetPoint" />
          </mxGeometry>
        </mxCell>
        <mxCell id="yrHQgA5anK2MkfYK_7r1-170" value="" style="endArrow=classic;html=1;rounded=0;" parent="1" edge="1">
          <mxGeometry width="50" height="50" relative="1" as="geometry">
            <mxPoint x="160.51999999999998" y="-189" as="sourcePoint" />
            <mxPoint x="160.91999999999996" y="-109" as="targetPoint" />
          </mxGeometry>
        </mxCell>
        <mxCell id="yrHQgA5anK2MkfYK_7r1-171" style="edgeStyle=orthogonalEdgeStyle;rounded=0;orthogonalLoop=1;jettySize=auto;html=1;exitX=0.5;exitY=1;exitDx=0;exitDy=0;entryX=0;entryY=0.5;entryDx=0;entryDy=0;entryPerimeter=0;" parent="1" source="yrHQgA5anK2MkfYK_7r1-172" target="yrHQgA5anK2MkfYK_7r1-228" edge="1">
          <mxGeometry relative="1" as="geometry">
            <mxPoint x="156" y="949.9999999999991" as="targetPoint" />
            <Array as="points">
              <mxPoint x="156" y="960" />
            </Array>
          </mxGeometry>
        </mxCell>
        <mxCell id="yrHQgA5anK2MkfYK_7r1-172" value="รับสินค้า" style="shape=parallelogram;perimeter=parallelogramPerimeter;whiteSpace=wrap;html=1;fixedSize=1;" parent="1" vertex="1">
          <mxGeometry x="96" y="-109" width="120" height="60" as="geometry" />
        </mxCell>
        <mxCell id="yrHQgA5anK2MkfYK_7r1-173" value="&lt;span style=&quot;font-family: Sarabun; font-size: 14px; text-align: left; text-wrap-mode: nowrap;&quot;&gt;ถั่วแปบ 20 บาท&lt;/span&gt;" style="rhombus;whiteSpace=wrap;html=1;" parent="1" vertex="1">
          <mxGeometry x="-200" y="-860" width="140" height="90" as="geometry" />
        </mxCell>
        <mxCell id="yrHQgA5anK2MkfYK_7r1-174" value="" style="endArrow=none;html=1;rounded=0;" parent="1" edge="1">
          <mxGeometry width="50" height="50" relative="1" as="geometry">
            <mxPoint x="-130" y="-740" as="sourcePoint" />
            <mxPoint x="-130.08000000000004" y="-770" as="targetPoint" />
          </mxGeometry>
        </mxCell>
        <mxCell id="yrHQgA5anK2MkfYK_7r1-175" value="" style="endArrow=classic;html=1;rounded=0;" parent="1" edge="1">
          <mxGeometry width="50" height="50" relative="1" as="geometry">
            <mxPoint x="-130" y="-739" as="sourcePoint" />
            <mxPoint x="-174" y="-700" as="targetPoint" />
            <Array as="points">
              <mxPoint x="-175" y="-739" />
            </Array>
          </mxGeometry>
        </mxCell>
        <mxCell id="yrHQgA5anK2MkfYK_7r1-176" value="จริง" style="edgeLabel;html=1;align=center;verticalAlign=middle;resizable=0;points=[];" parent="yrHQgA5anK2MkfYK_7r1-175" vertex="1" connectable="0">
          <mxGeometry x="-0.308" y="-1" relative="1" as="geometry">
            <mxPoint as="offset" />
          </mxGeometry>
        </mxCell>
        <mxCell id="yrHQgA5anK2MkfYK_7r1-177" value="&lt;div style=&quot;text-align: left;&quot;&gt;&lt;span style=&quot;background-color: transparent; color: light-dark(rgb(0, 0, 0), rgb(255, 255, 255)); text-wrap-mode: nowrap;&quot;&gt;&lt;font face=&quot;Sarabun&quot;&gt;ตรวจสอบสินค้า&lt;/font&gt;&lt;/span&gt;&lt;/div&gt;&lt;div style=&quot;&quot;&gt;&lt;span style=&quot;background-color: transparent; color: light-dark(rgb(0, 0, 0), rgb(255, 255, 255)); text-wrap-mode: nowrap;&quot;&gt;&lt;font face=&quot;Sarabun&quot;&gt;มีหรือไม่&lt;/font&gt;&lt;/span&gt;&lt;/div&gt;" style="rhombus;whiteSpace=wrap;html=1;" parent="1" vertex="1">
          <mxGeometry x="-245" y="-559" width="140" height="110" as="geometry" />
        </mxCell>
        <mxCell id="yrHQgA5anK2MkfYK_7r1-178" value="" style="endArrow=classic;html=1;rounded=0;" parent="1" edge="1">
          <mxGeometry width="50" height="50" relative="1" as="geometry">
            <mxPoint x="-175.59000000000015" y="-449" as="sourcePoint" />
            <mxPoint x="-175" y="-399" as="targetPoint" />
          </mxGeometry>
        </mxCell>
        <mxCell id="yrHQgA5anK2MkfYK_7r1-179" value="จริง" style="edgeLabel;html=1;align=center;verticalAlign=middle;resizable=0;points=[];" parent="yrHQgA5anK2MkfYK_7r1-178" vertex="1" connectable="0">
          <mxGeometry x="-0.0716" y="2" relative="1" as="geometry">
            <mxPoint as="offset" />
          </mxGeometry>
        </mxCell>
        <mxCell id="yrHQgA5anK2MkfYK_7r1-180" value="&lt;font&gt;เหลือสินค้า&lt;/font&gt;" style="rounded=0;whiteSpace=wrap;html=1;" parent="1" vertex="1">
          <mxGeometry x="-225" y="-399" width="100" height="60" as="geometry" />
        </mxCell>
        <mxCell id="yrHQgA5anK2MkfYK_7r1-181" value="" style="endArrow=classic;html=1;rounded=0;exitX=1;exitY=0.5;exitDx=0;exitDy=0;" parent="1" source="yrHQgA5anK2MkfYK_7r1-177" edge="1">
          <mxGeometry width="50" height="50" relative="1" as="geometry">
            <mxPoint x="-105" y="-509" as="sourcePoint" />
            <mxPoint x="5" y="-409" as="targetPoint" />
            <Array as="points">
              <mxPoint x="5" y="-500" />
            </Array>
          </mxGeometry>
        </mxCell>
        <mxCell id="yrHQgA5anK2MkfYK_7r1-182" value="เท็จ" style="edgeLabel;html=1;align=center;verticalAlign=middle;resizable=0;points=[];" parent="yrHQgA5anK2MkfYK_7r1-181" vertex="1" connectable="0">
          <mxGeometry x="-0.2122" y="-1" relative="1" as="geometry">
            <mxPoint as="offset" />
          </mxGeometry>
        </mxCell>
        <mxCell id="yrHQgA5anK2MkfYK_7r1-183" value="สินค้าหมด" style="rounded=0;whiteSpace=wrap;html=1;" parent="1" vertex="1">
          <mxGeometry x="-45" y="-409" width="100" height="60" as="geometry" />
        </mxCell>
        <mxCell id="yrHQgA5anK2MkfYK_7r1-184" value="" style="endArrow=classic;html=1;rounded=0;" parent="1" edge="1">
          <mxGeometry width="50" height="50" relative="1" as="geometry">
            <mxPoint x="-175.71000000000004" y="-339" as="sourcePoint" />
            <mxPoint x="-175.1199999999999" y="-289" as="targetPoint" />
          </mxGeometry>
        </mxCell>
        <mxCell id="yrHQgA5anK2MkfYK_7r1-185" value="&lt;div style=&quot;&quot;&gt;&lt;font face=&quot;Sarabun&quot;&gt;&lt;span style=&quot;text-wrap-mode: nowrap;&quot;&gt;จำนวนที่เลือก&amp;gt;&lt;/span&gt;&lt;/font&gt;&lt;span style=&quot;text-wrap-mode: nowrap; font-family: Sarabun; background-color: transparent; color: light-dark(rgb(0, 0, 0), rgb(255, 255, 255));&quot;&gt;จำนวน&lt;/span&gt;&lt;/div&gt;&lt;div style=&quot;&quot;&gt;&lt;span style=&quot;text-wrap-mode: nowrap; font-family: Sarabun; background-color: transparent; color: light-dark(rgb(0, 0, 0), rgb(255, 255, 255));&quot;&gt;คงเหลือ&lt;/span&gt;&lt;/div&gt;" style="rhombus;whiteSpace=wrap;html=1;" parent="1" vertex="1">
          <mxGeometry x="-255" y="-179" width="160" height="110" as="geometry" />
        </mxCell>
        <mxCell id="yrHQgA5anK2MkfYK_7r1-186" value="" style="endArrow=classic;html=1;rounded=0;exitX=0;exitY=0.5;exitDx=0;exitDy=0;" parent="1" source="yrHQgA5anK2MkfYK_7r1-185" edge="1">
          <mxGeometry width="50" height="50" relative="1" as="geometry">
            <mxPoint x="-255" y="-129" as="sourcePoint" />
            <mxPoint x="-355" y="-49" as="targetPoint" />
            <Array as="points">
              <mxPoint x="-355" y="-124" />
            </Array>
          </mxGeometry>
        </mxCell>
        <mxCell id="yrHQgA5anK2MkfYK_7r1-187" value="จริง" style="edgeLabel;html=1;align=center;verticalAlign=middle;resizable=0;points=[];" parent="yrHQgA5anK2MkfYK_7r1-186" vertex="1" connectable="0">
          <mxGeometry x="-0.1917" y="-1" relative="1" as="geometry">
            <mxPoint as="offset" />
          </mxGeometry>
        </mxCell>
        <mxCell id="yrHQgA5anK2MkfYK_7r1-188" value="&lt;font&gt;สินค้าคงเหลือ&lt;/font&gt;" style="rounded=0;whiteSpace=wrap;html=1;" parent="1" vertex="1">
          <mxGeometry x="-415" y="-49" width="110" height="60" as="geometry" />
        </mxCell>
        <mxCell id="yrHQgA5anK2MkfYK_7r1-189" value="แสดงข้อความ&lt;div&gt;จำนวนสินค้าคงเหลือ&lt;/div&gt;&lt;div&gt;ไม่พอ&lt;/div&gt;" style="rounded=0;whiteSpace=wrap;html=1;" parent="1" vertex="1">
          <mxGeometry x="-230" y="11" width="110" height="60" as="geometry" />
        </mxCell>
        <mxCell id="yrHQgA5anK2MkfYK_7r1-190" value="" style="endArrow=classic;html=1;rounded=0;" parent="1" edge="1">
          <mxGeometry width="50" height="50" relative="1" as="geometry">
            <mxPoint x="-175.4000000000001" y="-69" as="sourcePoint" />
            <mxPoint x="-175" y="11" as="targetPoint" />
          </mxGeometry>
        </mxCell>
        <mxCell id="yrHQgA5anK2MkfYK_7r1-191" value="เท้จ" style="edgeLabel;html=1;align=center;verticalAlign=middle;resizable=0;points=[];" parent="yrHQgA5anK2MkfYK_7r1-190" vertex="1" connectable="0">
          <mxGeometry x="-0.3365" y="-1" relative="1" as="geometry">
            <mxPoint as="offset" />
          </mxGeometry>
        </mxCell>
        <mxCell id="yrHQgA5anK2MkfYK_7r1-192" value="&lt;font&gt;เลือกจำนวนสินค้า&lt;/font&gt;" style="rounded=0;whiteSpace=wrap;html=1;" parent="1" vertex="1">
          <mxGeometry x="-225" y="-289" width="110" height="60" as="geometry" />
        </mxCell>
        <mxCell id="yrHQgA5anK2MkfYK_7r1-193" value="&lt;font&gt;เลือกสินค้า&lt;/font&gt;" style="rounded=0;whiteSpace=wrap;html=1;" parent="1" vertex="1">
          <mxGeometry x="-215" y="-699" width="100" height="60" as="geometry" />
        </mxCell>
        <mxCell id="yrHQgA5anK2MkfYK_7r1-194" value="" style="endArrow=classic;html=1;rounded=0;entryX=0.5;entryY=0;entryDx=0;entryDy=0;" parent="1" edge="1">
          <mxGeometry width="50" height="50" relative="1" as="geometry">
            <mxPoint x="-175" y="-639" as="sourcePoint" />
            <mxPoint x="-174.28999999999996" y="-560" as="targetPoint" />
          </mxGeometry>
        </mxCell>
        <mxCell id="yrHQgA5anK2MkfYK_7r1-195" value="" style="endArrow=classic;html=1;rounded=0;" parent="1" edge="1">
          <mxGeometry width="50" height="50" relative="1" as="geometry">
            <mxPoint x="-175.59000000000015" y="-229" as="sourcePoint" />
            <mxPoint x="-175" y="-179" as="targetPoint" />
          </mxGeometry>
        </mxCell>
        <mxCell id="yrHQgA5anK2MkfYK_7r1-196" value="" style="endArrow=classic;html=1;rounded=0;" parent="1" edge="1">
          <mxGeometry width="50" height="50" relative="1" as="geometry">
            <mxPoint x="-355.48" y="11" as="sourcePoint" />
            <mxPoint x="-355.08000000000004" y="91" as="targetPoint" />
          </mxGeometry>
        </mxCell>
        <mxCell id="yrHQgA5anK2MkfYK_7r1-197" value="รับสินค้า" style="shape=parallelogram;perimeter=parallelogramPerimeter;whiteSpace=wrap;html=1;fixedSize=1;" parent="1" vertex="1">
          <mxGeometry x="-420" y="91" width="120" height="60" as="geometry" />
        </mxCell>
        <mxCell id="yrHQgA5anK2MkfYK_7r1-198" style="edgeStyle=orthogonalEdgeStyle;rounded=0;orthogonalLoop=1;jettySize=auto;html=1;exitX=0;exitY=0.5;exitDx=0;exitDy=0;entryX=0.5;entryY=0;entryDx=0;entryDy=0;" parent="1" source="yrHQgA5anK2MkfYK_7r1-173" target="yrHQgA5anK2MkfYK_7r1-202" edge="1">
          <mxGeometry relative="1" as="geometry">
            <mxPoint x="-660" y="-660" as="targetPoint" />
            <mxPoint x="-200" y="-810" as="sourcePoint" />
          </mxGeometry>
        </mxCell>
        <mxCell id="yrHQgA5anK2MkfYK_7r1-199" value="เท็จ" style="edgeLabel;html=1;align=center;verticalAlign=middle;resizable=0;points=[];" parent="yrHQgA5anK2MkfYK_7r1-198" vertex="1" connectable="0">
          <mxGeometry x="-0.1628" y="1" relative="1" as="geometry">
            <mxPoint as="offset" />
          </mxGeometry>
        </mxCell>
        <mxCell id="yrHQgA5anK2MkfYK_7r1-200" style="edgeStyle=orthogonalEdgeStyle;rounded=0;orthogonalLoop=1;jettySize=auto;html=1;exitX=0.5;exitY=1;exitDx=0;exitDy=0;" parent="1" source="yrHQgA5anK2MkfYK_7r1-202" edge="1">
          <mxGeometry relative="1" as="geometry">
            <mxPoint x="-700" y="-490" as="targetPoint" />
          </mxGeometry>
        </mxCell>
        <mxCell id="yrHQgA5anK2MkfYK_7r1-201" value="จริง" style="edgeLabel;html=1;align=center;verticalAlign=middle;resizable=0;points=[];" parent="yrHQgA5anK2MkfYK_7r1-200" vertex="1" connectable="0">
          <mxGeometry x="0.0028" y="1" relative="1" as="geometry">
            <mxPoint as="offset" />
          </mxGeometry>
        </mxCell>
        <mxCell id="yrHQgA5anK2MkfYK_7r1-202" value="&lt;span style=&quot;font-family: Sarabun; font-size: 14px; text-align: left; text-wrap-mode: nowrap;&quot;&gt;จิ้นส้มหมก 15 บาท&lt;/span&gt;" style="rhombus;whiteSpace=wrap;html=1;" parent="1" vertex="1">
          <mxGeometry x="-730" y="-660" width="130" height="100" as="geometry" />
        </mxCell>
        <mxCell id="yrHQgA5anK2MkfYK_7r1-203" value="&lt;div style=&quot;text-align: left;&quot;&gt;&lt;span style=&quot;background-color: transparent; color: light-dark(rgb(0, 0, 0), rgb(255, 255, 255)); text-wrap-mode: nowrap;&quot;&gt;&lt;font face=&quot;Sarabun&quot;&gt;ตรวจสอบสินค้า&lt;/font&gt;&lt;/span&gt;&lt;/div&gt;&lt;div style=&quot;&quot;&gt;&lt;span style=&quot;background-color: transparent; color: light-dark(rgb(0, 0, 0), rgb(255, 255, 255)); text-wrap-mode: nowrap;&quot;&gt;&lt;font face=&quot;Sarabun&quot;&gt;มีหรือไม่&lt;/font&gt;&lt;/span&gt;&lt;/div&gt;" style="rhombus;whiteSpace=wrap;html=1;" parent="1" vertex="1">
          <mxGeometry x="-775" y="-349" width="140" height="110" as="geometry" />
        </mxCell>
        <mxCell id="yrHQgA5anK2MkfYK_7r1-204" value="" style="endArrow=classic;html=1;rounded=0;" parent="1" edge="1">
          <mxGeometry width="50" height="50" relative="1" as="geometry">
            <mxPoint x="-705.5900000000001" y="-239" as="sourcePoint" />
            <mxPoint x="-705" y="-189" as="targetPoint" />
          </mxGeometry>
        </mxCell>
        <mxCell id="yrHQgA5anK2MkfYK_7r1-205" value="จริง" style="edgeLabel;html=1;align=center;verticalAlign=middle;resizable=0;points=[];" parent="yrHQgA5anK2MkfYK_7r1-204" vertex="1" connectable="0">
          <mxGeometry x="-0.0888" y="-2" relative="1" as="geometry">
            <mxPoint as="offset" />
          </mxGeometry>
        </mxCell>
        <mxCell id="yrHQgA5anK2MkfYK_7r1-206" value="&lt;font&gt;เหลือสินค้า&lt;/font&gt;" style="rounded=0;whiteSpace=wrap;html=1;" parent="1" vertex="1">
          <mxGeometry x="-755" y="-189" width="100" height="60" as="geometry" />
        </mxCell>
        <mxCell id="yrHQgA5anK2MkfYK_7r1-207" value="" style="endArrow=classic;html=1;rounded=0;" parent="1" edge="1">
          <mxGeometry width="50" height="50" relative="1" as="geometry">
            <mxPoint x="-635" y="-299" as="sourcePoint" />
            <mxPoint x="-525" y="-199" as="targetPoint" />
            <Array as="points">
              <mxPoint x="-525" y="-299" />
            </Array>
          </mxGeometry>
        </mxCell>
        <mxCell id="yrHQgA5anK2MkfYK_7r1-208" value="เท็จ" style="edgeLabel;html=1;align=center;verticalAlign=middle;resizable=0;points=[];" parent="yrHQgA5anK2MkfYK_7r1-207" vertex="1" connectable="0">
          <mxGeometry x="-0.4381" y="-2" relative="1" as="geometry">
            <mxPoint as="offset" />
          </mxGeometry>
        </mxCell>
        <mxCell id="yrHQgA5anK2MkfYK_7r1-209" value="สินค้าหมด" style="rounded=0;whiteSpace=wrap;html=1;" parent="1" vertex="1">
          <mxGeometry x="-575" y="-199" width="100" height="60" as="geometry" />
        </mxCell>
        <mxCell id="yrHQgA5anK2MkfYK_7r1-210" value="" style="endArrow=classic;html=1;rounded=0;" parent="1" edge="1">
          <mxGeometry width="50" height="50" relative="1" as="geometry">
            <mxPoint x="-705.71" y="-129" as="sourcePoint" />
            <mxPoint x="-705.1199999999999" y="-79" as="targetPoint" />
          </mxGeometry>
        </mxCell>
        <mxCell id="yrHQgA5anK2MkfYK_7r1-211" value="&lt;div style=&quot;&quot;&gt;&lt;font face=&quot;Sarabun&quot;&gt;&lt;span style=&quot;text-wrap-mode: nowrap;&quot;&gt;จำนวนที่เลือก&amp;gt;&lt;/span&gt;&lt;/font&gt;&lt;span style=&quot;text-wrap-mode: nowrap; font-family: Sarabun; background-color: transparent; color: light-dark(rgb(0, 0, 0), rgb(255, 255, 255));&quot;&gt;จำนวน&lt;/span&gt;&lt;/div&gt;&lt;div style=&quot;&quot;&gt;&lt;span style=&quot;text-wrap-mode: nowrap; font-family: Sarabun; background-color: transparent; color: light-dark(rgb(0, 0, 0), rgb(255, 255, 255));&quot;&gt;คงเหลือ&lt;/span&gt;&lt;/div&gt;" style="rhombus;whiteSpace=wrap;html=1;" parent="1" vertex="1">
          <mxGeometry x="-785" y="31" width="160" height="110" as="geometry" />
        </mxCell>
        <mxCell id="yrHQgA5anK2MkfYK_7r1-212" value="" style="endArrow=classic;html=1;rounded=0;exitX=0;exitY=0.5;exitDx=0;exitDy=0;" parent="1" source="yrHQgA5anK2MkfYK_7r1-211" edge="1">
          <mxGeometry width="50" height="50" relative="1" as="geometry">
            <mxPoint x="-785" y="81" as="sourcePoint" />
            <mxPoint x="-885" y="161" as="targetPoint" />
            <Array as="points">
              <mxPoint x="-885" y="86" />
            </Array>
          </mxGeometry>
        </mxCell>
        <mxCell id="yrHQgA5anK2MkfYK_7r1-213" value="จริง" style="edgeLabel;html=1;align=center;verticalAlign=middle;resizable=0;points=[];" parent="yrHQgA5anK2MkfYK_7r1-212" vertex="1" connectable="0">
          <mxGeometry x="-0.2114" y="3" relative="1" as="geometry">
            <mxPoint as="offset" />
          </mxGeometry>
        </mxCell>
        <mxCell id="yrHQgA5anK2MkfYK_7r1-214" value="&lt;font&gt;สินค้าคงเหลือ&lt;/font&gt;" style="rounded=0;whiteSpace=wrap;html=1;" parent="1" vertex="1">
          <mxGeometry x="-945" y="161" width="110" height="60" as="geometry" />
        </mxCell>
        <mxCell id="yrHQgA5anK2MkfYK_7r1-215" value="แสดงข้อความ&lt;div&gt;จำนวนสินค้าคงเหลือ&lt;/div&gt;&lt;div&gt;ไม่พอ&lt;/div&gt;" style="rounded=0;whiteSpace=wrap;html=1;" parent="1" vertex="1">
          <mxGeometry x="-760" y="221" width="110" height="60" as="geometry" />
        </mxCell>
        <mxCell id="yrHQgA5anK2MkfYK_7r1-216" value="" style="endArrow=classic;html=1;rounded=0;" parent="1" edge="1">
          <mxGeometry width="50" height="50" relative="1" as="geometry">
            <mxPoint x="-705.4000000000001" y="141" as="sourcePoint" />
            <mxPoint x="-705" y="221" as="targetPoint" />
          </mxGeometry>
        </mxCell>
        <mxCell id="yrHQgA5anK2MkfYK_7r1-217" value="เท็จ" style="edgeLabel;html=1;align=center;verticalAlign=middle;resizable=0;points=[];" parent="yrHQgA5anK2MkfYK_7r1-216" vertex="1" connectable="0">
          <mxGeometry x="-0.3301" y="-1" relative="1" as="geometry">
            <mxPoint as="offset" />
          </mxGeometry>
        </mxCell>
        <mxCell id="yrHQgA5anK2MkfYK_7r1-218" value="&lt;font&gt;เลือกจำนวนสินค้า&lt;/font&gt;" style="rounded=0;whiteSpace=wrap;html=1;" parent="1" vertex="1">
          <mxGeometry x="-755" y="-79" width="110" height="60" as="geometry" />
        </mxCell>
        <mxCell id="yrHQgA5anK2MkfYK_7r1-219" value="&lt;font&gt;เลือกสินค้า&lt;/font&gt;" style="rounded=0;whiteSpace=wrap;html=1;" parent="1" vertex="1">
          <mxGeometry x="-745" y="-489" width="100" height="60" as="geometry" />
        </mxCell>
        <mxCell id="yrHQgA5anK2MkfYK_7r1-220" value="" style="endArrow=classic;html=1;rounded=0;entryX=0.5;entryY=0;entryDx=0;entryDy=0;" parent="1" edge="1">
          <mxGeometry width="50" height="50" relative="1" as="geometry">
            <mxPoint x="-705" y="-429" as="sourcePoint" />
            <mxPoint x="-704.29" y="-350" as="targetPoint" />
          </mxGeometry>
        </mxCell>
        <mxCell id="yrHQgA5anK2MkfYK_7r1-221" value="" style="endArrow=classic;html=1;rounded=0;" parent="1" edge="1">
          <mxGeometry width="50" height="50" relative="1" as="geometry">
            <mxPoint x="-705.5900000000001" y="-19" as="sourcePoint" />
            <mxPoint x="-705" y="31" as="targetPoint" />
          </mxGeometry>
        </mxCell>
        <mxCell id="yrHQgA5anK2MkfYK_7r1-222" value="" style="endArrow=classic;html=1;rounded=0;" parent="1" edge="1">
          <mxGeometry width="50" height="50" relative="1" as="geometry">
            <mxPoint x="-885.48" y="221" as="sourcePoint" />
            <mxPoint x="-885.08" y="301" as="targetPoint" />
          </mxGeometry>
        </mxCell>
        <mxCell id="yrHQgA5anK2MkfYK_7r1-223" value="รับสินค้า" style="shape=parallelogram;perimeter=parallelogramPerimeter;whiteSpace=wrap;html=1;fixedSize=1;" parent="1" vertex="1">
          <mxGeometry x="-950" y="301" width="120" height="60" as="geometry" />
        </mxCell>
        <mxCell id="yrHQgA5anK2MkfYK_7r1-224" value="" style="endArrow=none;html=1;rounded=0;entryX=0.5;entryY=1;entryDx=0;entryDy=0;" parent="1" edge="1">
          <mxGeometry width="50" height="50" relative="1" as="geometry">
            <mxPoint x="10" y="860" as="sourcePoint" />
            <mxPoint x="10" y="-349" as="targetPoint" />
          </mxGeometry>
        </mxCell>
        <mxCell id="yrHQgA5anK2MkfYK_7r1-225" value="" style="endArrow=none;html=1;rounded=0;entryX=0.5;entryY=1;entryDx=0;entryDy=0;" parent="1" edge="1">
          <mxGeometry width="50" height="50" relative="1" as="geometry">
            <mxPoint x="-176" y="860" as="sourcePoint" />
            <mxPoint x="-175.83" y="71" as="targetPoint" />
          </mxGeometry>
        </mxCell>
        <mxCell id="yrHQgA5anK2MkfYK_7r1-226" value="" style="endArrow=none;html=1;rounded=0;entryX=0.5;entryY=1;entryDx=0;entryDy=0;" parent="1" edge="1">
          <mxGeometry width="50" height="50" relative="1" as="geometry">
            <mxPoint x="-710" y="860" as="sourcePoint" />
            <mxPoint x="-706.08" y="290" as="targetPoint" />
          </mxGeometry>
        </mxCell>
        <mxCell id="yrHQgA5anK2MkfYK_7r1-227" value="" style="endArrow=none;html=1;rounded=0;entryX=0.5;entryY=1;entryDx=0;entryDy=0;" parent="1" edge="1">
          <mxGeometry width="50" height="50" relative="1" as="geometry">
            <mxPoint x="-526" y="860" as="sourcePoint" />
            <mxPoint x="-525.71" y="-139" as="targetPoint" />
          </mxGeometry>
        </mxCell>
        <mxCell id="yrHQgA5anK2MkfYK_7r1-228" value="" style="strokeWidth=2;html=1;shape=mxgraph.flowchart.start_2;whiteSpace=wrap;" parent="1" vertex="1">
          <mxGeometry x="701" y="950" width="20" height="20" as="geometry" />
        </mxCell>
        <mxCell id="yrHQgA5anK2MkfYK_7r1-229" value="" style="endArrow=none;html=1;rounded=0;entryX=0.5;entryY=1;entryDx=0;entryDy=0;" parent="1" target="yrHQgA5anK2MkfYK_7r1-197" edge="1">
          <mxGeometry width="50" height="50" relative="1" as="geometry">
            <mxPoint x="160" y="960" as="sourcePoint" />
            <mxPoint x="60" y="620" as="targetPoint" />
            <Array as="points">
              <mxPoint x="-360" y="960" />
            </Array>
          </mxGeometry>
        </mxCell>
        <mxCell id="yrHQgA5anK2MkfYK_7r1-230" value="" style="endArrow=classic;html=1;rounded=0;exitX=1;exitY=0.5;exitDx=0;exitDy=0;" parent="1" source="yrHQgA5anK2MkfYK_7r1-114" edge="1">
          <mxGeometry width="50" height="50" relative="1" as="geometry">
            <mxPoint x="2520" y="-385" as="sourcePoint" />
            <mxPoint x="2780" y="-260" as="targetPoint" />
            <Array as="points">
              <mxPoint x="2780" y="-385" />
            </Array>
          </mxGeometry>
        </mxCell>
        <mxCell id="yrHQgA5anK2MkfYK_7r1-231" value="เท็จ" style="edgeLabel;html=1;align=center;verticalAlign=middle;resizable=0;points=[];" parent="yrHQgA5anK2MkfYK_7r1-230" vertex="1" connectable="0">
          <mxGeometry x="0.1543" relative="1" as="geometry">
            <mxPoint as="offset" />
          </mxGeometry>
        </mxCell>
        <mxCell id="yrHQgA5anK2MkfYK_7r1-232" value="&lt;font&gt;ไม่เอา&lt;/font&gt;" style="rounded=0;whiteSpace=wrap;html=1;" parent="1" vertex="1">
          <mxGeometry x="2730" y="-259" width="100" height="60" as="geometry" />
        </mxCell>
        <mxCell id="yrHQgA5anK2MkfYK_7r1-233" value="" style="endArrow=none;html=1;rounded=0;entryX=0.544;entryY=1.021;entryDx=0;entryDy=0;entryPerimeter=0;" parent="1" target="yrHQgA5anK2MkfYK_7r1-232" edge="1">
          <mxGeometry width="50" height="50" relative="1" as="geometry">
            <mxPoint x="2800" y="860" as="sourcePoint" />
            <mxPoint x="2790" y="-194" as="targetPoint" />
          </mxGeometry>
        </mxCell>
        <mxCell id="yrHQgA5anK2MkfYK_7r1-234" value="" style="endArrow=none;html=1;rounded=0;entryX=0.5;entryY=1;entryDx=0;entryDy=0;" parent="1" target="yrHQgA5anK2MkfYK_7r1-223" edge="1">
          <mxGeometry width="50" height="50" relative="1" as="geometry">
            <mxPoint x="-360" y="960" as="sourcePoint" />
            <mxPoint x="-890" y="370" as="targetPoint" />
            <Array as="points">
              <mxPoint x="-890" y="960" />
            </Array>
          </mxGeometry>
        </mxCell>
        <mxCell id="yrHQgA5anK2MkfYK_7r1-235" value="" style="endArrow=none;html=1;rounded=0;" parent="1" edge="1">
          <mxGeometry width="50" height="50" relative="1" as="geometry">
            <mxPoint x="790" y="960" as="sourcePoint" />
            <mxPoint x="1255.41" y="151" as="targetPoint" />
            <Array as="points">
              <mxPoint x="1255" y="960" />
            </Array>
          </mxGeometry>
        </mxCell>
        <mxCell id="yrHQgA5anK2MkfYK_7r1-236" value="" style="endArrow=none;html=1;rounded=0;entryX=0.5;entryY=1;entryDx=0;entryDy=0;" parent="1" target="yrHQgA5anK2MkfYK_7r1-113" edge="1">
          <mxGeometry width="50" height="50" relative="1" as="geometry">
            <mxPoint x="1250" y="960" as="sourcePoint" />
            <mxPoint x="1751" y="402" as="targetPoint" />
            <Array as="points">
              <mxPoint x="1730" y="960" />
            </Array>
          </mxGeometry>
        </mxCell>
        <mxCell id="yrHQgA5anK2MkfYK_7r1-237" value="" style="endArrow=none;html=1;rounded=0;" parent="1" edge="1">
          <mxGeometry width="50" height="50" relative="1" as="geometry">
            <mxPoint x="1730" y="960" as="sourcePoint" />
            <mxPoint x="2220" y="602" as="targetPoint" />
            <Array as="points">
              <mxPoint x="2220" y="960" />
            </Array>
          </mxGeometry>
        </mxCell>
        <mxCell id="yrHQgA5anK2MkfYK_7r1-238" value="" style="endArrow=classic;html=1;rounded=0;" parent="1" edge="1">
          <mxGeometry width="50" height="50" relative="1" as="geometry">
            <mxPoint x="710.33" y="970" as="sourcePoint" />
            <mxPoint x="710.33" y="1080" as="targetPoint" />
          </mxGeometry>
        </mxCell>
        <mxCell id="yrHQgA5anK2MkfYK_7r1-239" value="" style="endArrow=none;html=1;rounded=0;" parent="1" edge="1">
          <mxGeometry width="50" height="50" relative="1" as="geometry">
            <mxPoint x="1180" y="860" as="sourcePoint" />
            <mxPoint x="986" y="-120" as="targetPoint" />
            <Array as="points">
              <mxPoint x="986" y="860" />
            </Array>
          </mxGeometry>
        </mxCell>
        <mxCell id="yrHQgA5anK2MkfYK_7r1-240" value="" style="endArrow=none;html=1;rounded=0;entryX=0.5;entryY=1;entryDx=0;entryDy=0;" parent="1" target="yrHQgA5anK2MkfYK_7r1-78" edge="1">
          <mxGeometry width="50" height="50" relative="1" as="geometry">
            <mxPoint x="1450" y="860" as="sourcePoint" />
            <mxPoint x="1570" y="220" as="targetPoint" />
          </mxGeometry>
        </mxCell>
        <mxCell id="yrHQgA5anK2MkfYK_7r1-241" value="" style="endArrow=none;html=1;rounded=0;entryX=0.5;entryY=1;entryDx=0;entryDy=0;" parent="1" target="yrHQgA5anK2MkfYK_7r1-105" edge="1">
          <mxGeometry width="50" height="50" relative="1" as="geometry">
            <mxPoint x="1910" y="860" as="sourcePoint" />
            <mxPoint x="2010" y="350" as="targetPoint" />
          </mxGeometry>
        </mxCell>
        <mxCell id="yrHQgA5anK2MkfYK_7r1-242" value="" style="endArrow=none;html=1;rounded=0;entryX=0.5;entryY=1;entryDx=0;entryDy=0;" parent="1" target="yrHQgA5anK2MkfYK_7r1-130" edge="1">
          <mxGeometry width="50" height="50" relative="1" as="geometry">
            <mxPoint x="2400" y="860" as="sourcePoint" />
            <mxPoint x="2480" y="660" as="targetPoint" />
          </mxGeometry>
        </mxCell>
        <mxCell id="yrHQgA5anK2MkfYK_7r1-243" value="" style="endArrow=none;html=1;rounded=0;entryX=0.5;entryY=1;entryDx=0;entryDy=0;" parent="1" target="yrHQgA5anK2MkfYK_7r1-163" edge="1">
          <mxGeometry width="50" height="50" relative="1" as="geometry">
            <mxPoint x="350" y="860" as="sourcePoint" />
            <mxPoint x="339.91999999999996" y="-90" as="targetPoint" />
          </mxGeometry>
        </mxCell>
        <mxCell id="yrHQgA5anK2MkfYK_7r1-244" value="&lt;font face=&quot;Sarabun&quot;&gt;สิ้นสุด&lt;/font&gt;" style="ellipse;whiteSpace=wrap;html=1;" parent="1" vertex="1">
          <mxGeometry x="645.5" y="3460" width="130" height="50" as="geometry" />
        </mxCell>
        <mxCell id="yrHQgA5anK2MkfYK_7r1-245" value="โค้ก กระป๋องละ 20 กระป๋อง" style="rounded=0;whiteSpace=wrap;html=1;" parent="1" vertex="1">
          <mxGeometry x="600" y="-2150" width="120" height="60" as="geometry" />
        </mxCell>
        <mxCell id="yrHQgA5anK2MkfYK_7r1-246" value="น้ำเขียว กระป๋องละ 20 กระป๋อง" style="rounded=0;whiteSpace=wrap;html=1;" parent="1" vertex="1">
          <mxGeometry x="602" y="-2040" width="120" height="60" as="geometry" />
        </mxCell>
        <mxCell id="yrHQgA5anK2MkfYK_7r1-247" value="" style="endArrow=classic;html=1;rounded=0;" parent="1" edge="1">
          <mxGeometry width="50" height="50" relative="1" as="geometry">
            <mxPoint x="660.5699999999999" y="-2090" as="sourcePoint" />
            <mxPoint x="661.0699999999999" y="-2040" as="targetPoint" />
          </mxGeometry>
        </mxCell>
        <mxCell id="yrHQgA5anK2MkfYK_7r1-248" value="อเมริกาโน่ 20 กระป๋อง&lt;span style=&quot;white-space:pre&quot;&gt;&#x9;&lt;/span&gt;" style="rounded=0;whiteSpace=wrap;html=1;" parent="1" vertex="1">
          <mxGeometry x="603.5" y="-1930" width="120" height="60" as="geometry" />
        </mxCell>
        <mxCell id="yrHQgA5anK2MkfYK_7r1-249" value="" style="endArrow=classic;html=1;rounded=0;" parent="1" edge="1">
          <mxGeometry width="50" height="50" relative="1" as="geometry">
            <mxPoint x="663.0699999999999" y="-1980" as="sourcePoint" />
            <mxPoint x="663.5699999999999" y="-1930" as="targetPoint" />
          </mxGeometry>
        </mxCell>
        <mxCell id="yrHQgA5anK2MkfYK_7r1-250" value="ลาเต้ หวานเจี๊ยบ 20 กระป๋อง" style="rounded=0;whiteSpace=wrap;html=1;" parent="1" vertex="1">
          <mxGeometry x="603.5" y="-1820" width="120" height="60" as="geometry" />
        </mxCell>
        <mxCell id="yrHQgA5anK2MkfYK_7r1-251" value="" style="endArrow=classic;html=1;rounded=0;" parent="1" edge="1">
          <mxGeometry width="50" height="50" relative="1" as="geometry">
            <mxPoint x="661.57" y="-1870" as="sourcePoint" />
            <mxPoint x="662.07" y="-1820" as="targetPoint" />
          </mxGeometry>
        </mxCell>
        <mxCell id="yrHQgA5anK2MkfYK_7r1-252" value="" style="endArrow=classic;html=1;rounded=0;" parent="1" edge="1">
          <mxGeometry width="50" height="50" relative="1" as="geometry">
            <mxPoint x="663.0699999999999" y="-1760" as="sourcePoint" />
            <mxPoint x="663.5699999999999" y="-1710" as="targetPoint" />
          </mxGeometry>
        </mxCell>
        <mxCell id="yrHQgA5anK2MkfYK_7r1-253" value="เมล็ดทานตะวัน 13 ถุง" style="rounded=0;whiteSpace=wrap;html=1;" parent="1" vertex="1">
          <mxGeometry x="606" y="-1710" width="120" height="60" as="geometry" />
        </mxCell>
        <mxCell id="yrHQgA5anK2MkfYK_7r1-254" value="ถั่วแปบ 20 ถุง" style="rounded=0;whiteSpace=wrap;html=1;" parent="1" vertex="1">
          <mxGeometry x="608.5" y="-1600" width="120" height="60" as="geometry" />
        </mxCell>
        <mxCell id="yrHQgA5anK2MkfYK_7r1-255" value="" style="endArrow=classic;html=1;rounded=0;" parent="1" edge="1">
          <mxGeometry width="50" height="50" relative="1" as="geometry">
            <mxPoint x="663.0699999999999" y="-1650" as="sourcePoint" />
            <mxPoint x="663.5699999999999" y="-1600" as="targetPoint" />
          </mxGeometry>
        </mxCell>
        <mxCell id="yrHQgA5anK2MkfYK_7r1-256" value="" style="endArrow=classic;html=1;rounded=0;entryX=0.5;entryY=0;entryDx=0;entryDy=0;exitX=0.474;exitY=1.004;exitDx=0;exitDy=0;exitPerimeter=0;" parent="1" source="yrHQgA5anK2MkfYK_7r1-19" target="yrHQgA5anK2MkfYK_7r1-245" edge="1">
          <mxGeometry width="50" height="50" relative="1" as="geometry">
            <mxPoint x="662.73" y="-2230" as="sourcePoint" />
            <mxPoint x="663.23" y="-2180" as="targetPoint" />
          </mxGeometry>
        </mxCell>
        <mxCell id="yrHQgA5anK2MkfYK_7r1-257" value="" style="endArrow=classic;html=1;rounded=0;" parent="1" edge="1">
          <mxGeometry width="50" height="50" relative="1" as="geometry">
            <mxPoint x="663.0699999999999" y="-1540" as="sourcePoint" />
            <mxPoint x="663.5699999999999" y="-1490" as="targetPoint" />
          </mxGeometry>
        </mxCell>
        <mxCell id="yrHQgA5anK2MkfYK_7r1-258" value="จิ้นส้มหมก 20 ห่อ" style="rounded=0;whiteSpace=wrap;html=1;" parent="1" vertex="1">
          <mxGeometry x="606" y="-1490" width="120" height="60" as="geometry" />
        </mxCell>
        <mxCell id="yrHQgA5anK2MkfYK_7r1-259" value="" style="endArrow=classic;html=1;rounded=0;entryX=0.5;entryY=0;entryDx=0;entryDy=0;" parent="1" target="yrHQgA5anK2MkfYK_7r1-2" edge="1">
          <mxGeometry width="50" height="50" relative="1" as="geometry">
            <mxPoint x="662.91" y="-3360" as="sourcePoint" />
            <mxPoint x="663.41" y="-3310" as="targetPoint" />
          </mxGeometry>
        </mxCell>
        <mxCell id="yrHQgA5anK2MkfYK_7r1-260" style="edgeStyle=orthogonalEdgeStyle;rounded=0;orthogonalLoop=1;jettySize=auto;html=1;exitX=0.5;exitY=1;exitDx=0;exitDy=0;entryX=0.456;entryY=0.065;entryDx=0;entryDy=0;entryPerimeter=0;" parent="1" source="yrHQgA5anK2MkfYK_7r1-45" target="yrHQgA5anK2MkfYK_7r1-58" edge="1">
          <mxGeometry relative="1" as="geometry" />
        </mxCell>
        <mxCell id="yrHQgA5anK2MkfYK_7r1-261" style="edgeStyle=orthogonalEdgeStyle;rounded=0;orthogonalLoop=1;jettySize=auto;html=1;entryX=0.455;entryY=0;entryDx=0;entryDy=0;entryPerimeter=0;" parent="1" source="yrHQgA5anK2MkfYK_7r1-70" target="yrHQgA5anK2MkfYK_7r1-81" edge="1">
          <mxGeometry relative="1" as="geometry" />
        </mxCell>
        <mxCell id="yrHQgA5anK2MkfYK_7r1-262" value="" style="endArrow=classic;html=1;rounded=0;" parent="1" edge="1">
          <mxGeometry width="50" height="50" relative="1" as="geometry">
            <mxPoint x="-600" y="-609.5" as="sourcePoint" />
            <mxPoint x="-470" y="-540" as="targetPoint" />
            <Array as="points">
              <mxPoint x="-470" y="-609" />
            </Array>
          </mxGeometry>
        </mxCell>
        <mxCell id="yrHQgA5anK2MkfYK_7r1-263" value="เท็จ" style="edgeLabel;html=1;align=center;verticalAlign=middle;resizable=0;points=[];" parent="yrHQgA5anK2MkfYK_7r1-262" vertex="1" connectable="0">
          <mxGeometry x="-0.3835" y="-3" relative="1" as="geometry">
            <mxPoint as="offset" />
          </mxGeometry>
        </mxCell>
        <mxCell id="yrHQgA5anK2MkfYK_7r1-264" value="&lt;font&gt;ไม่เอา&lt;/font&gt;" style="rounded=0;whiteSpace=wrap;html=1;" parent="1" vertex="1">
          <mxGeometry x="-520" y="-540" width="100" height="60" as="geometry" />
        </mxCell>
        <mxCell id="yrHQgA5anK2MkfYK_7r1-265" value="" style="endArrow=none;html=1;rounded=0;entryX=0.403;entryY=1.055;entryDx=0;entryDy=0;entryPerimeter=0;" parent="1" target="yrHQgA5anK2MkfYK_7r1-264" edge="1">
          <mxGeometry width="50" height="50" relative="1" as="geometry">
            <mxPoint x="-450" y="860" as="sourcePoint" />
            <mxPoint x="-500" y="-400" as="targetPoint" />
            <Array as="points">
              <mxPoint x="-440" y="-400" />
              <mxPoint x="-480" y="-400" />
            </Array>
          </mxGeometry>
        </mxCell>
        <mxCell id="yrHQgA5anK2MkfYK_7r1-266" value="คำนวณเงินทอน: L_money = C_money - P_item" style="rounded=0;whiteSpace=wrap;html=1;" parent="1" vertex="1">
          <mxGeometry x="620.5" y="1660" width="160" height="40" as="geometry" />
        </mxCell>
        <mxCell id="yrHQgA5anK2MkfYK_7r1-267" value="ตรวจสอบจำนวน&lt;div&gt;ธนบัตร/เหรียญใน&lt;/div&gt;&lt;div&gt;ตู้เพียงพอ?&lt;/div&gt;" style="rhombus;whiteSpace=wrap;html=1;" parent="1" vertex="1">
          <mxGeometry x="630.5" y="2555" width="160" height="90" as="geometry" />
        </mxCell>
        <mxCell id="yrHQgA5anK2MkfYK_7r1-268" value="แจ้งเตือน: เงินในตู้ไม่พอ" style="rounded=0;whiteSpace=wrap;html=1;" parent="1" vertex="1">
          <mxGeometry x="940.5" y="2490" width="140" height="40" as="geometry" />
        </mxCell>
        <mxCell id="yrHQgA5anK2MkfYK_7r1-269" style="edgeStyle=orthogonalEdgeStyle;rounded=0;orthogonalLoop=1;jettySize=auto;html=1;exitX=0.5;exitY=1;exitDx=0;exitDy=0;entryX=1;entryY=0.5;entryDx=0;entryDy=0;entryPerimeter=0;" parent="1" source="yrHQgA5anK2MkfYK_7r1-270" target="yrHQgA5anK2MkfYK_7r1-319" edge="1">
          <mxGeometry relative="1" as="geometry">
            <mxPoint x="1160.5" y="3350" as="targetPoint" />
            <Array as="points">
              <mxPoint x="1010.5" y="2830" />
              <mxPoint x="1351.5" y="2830" />
              <mxPoint x="1351.5" y="3370" />
            </Array>
          </mxGeometry>
        </mxCell>
        <mxCell id="yrHQgA5anK2MkfYK_7r1-270" value="ยกเลิกการซื้อและคืนเงิน" style="rounded=0;whiteSpace=wrap;html=1;" parent="1" vertex="1">
          <mxGeometry x="940.5" y="2660" width="140" height="40" as="geometry" />
        </mxCell>
        <mxCell id="yrHQgA5anK2MkfYK_7r1-271" value="วนลูปมูลค่าเงินทอน (1000, 500, 100, 50, 20, 10, 5, 1)" style="rounded=0;whiteSpace=wrap;html=1;" parent="1" vertex="1">
          <mxGeometry x="630.5" y="2710" width="160" height="40" as="geometry" />
        </mxCell>
        <mxCell id="yrHQgA5anK2MkfYK_7r1-272" value="คำนวณจำนวน: use = L_money ÷&amp;nbsp;&amp;nbsp;P_item" style="rounded=0;whiteSpace=wrap;html=1;" parent="1" vertex="1">
          <mxGeometry x="630.5" y="2800" width="160" height="40" as="geometry" />
        </mxCell>
        <mxCell id="yrHQgA5anK2MkfYK_7r1-273" value="use ≤ จำนวนในตู้?" style="rhombus;whiteSpace=wrap;html=1;" parent="1" vertex="1">
          <mxGeometry x="630.5" y="2880" width="160" height="60" as="geometry" />
        </mxCell>
        <mxCell id="yrHQgA5anK2MkfYK_7r1-274" style="edgeStyle=orthogonalEdgeStyle;rounded=0;orthogonalLoop=1;jettySize=auto;html=1;entryX=1;entryY=0.5;entryDx=0;entryDy=0;entryPerimeter=0;" parent="1" target="yrHQgA5anK2MkfYK_7r1-313" edge="1">
          <mxGeometry relative="1" as="geometry">
            <mxPoint x="1030.5" y="2600" as="targetPoint" />
            <Array as="points">
              <mxPoint x="1000.5" y="3025" />
              <mxPoint x="1170.5" y="3025" />
              <mxPoint x="1170.5" y="2600" />
            </Array>
            <mxPoint x="1000.5" y="2925" as="sourcePoint" />
          </mxGeometry>
        </mxCell>
        <mxCell id="yrHQgA5anK2MkfYK_7r1-275" value="แจ้งเตือน: ธนบัตร/เหรียญไม่พอ" style="rounded=0;whiteSpace=wrap;html=1;" parent="1" vertex="1">
          <mxGeometry x="940.5" y="2890" width="140" height="40" as="geometry" />
        </mxCell>
        <mxCell id="yrHQgA5anK2MkfYK_7r1-276" value="อัพเดต L_money = L_money % มูลค่า&amp;nbsp; = L_money" style="rounded=0;whiteSpace=wrap;html=1;" parent="1" vertex="1">
          <mxGeometry x="620.5" y="2990" width="180" height="50" as="geometry" />
        </mxCell>
        <mxCell id="yrHQgA5anK2MkfYK_7r1-277" value="อัพเดตจำนวนเงินในตู้ -= use" style="rounded=0;whiteSpace=wrap;html=1;" parent="1" vertex="1">
          <mxGeometry x="630.5" y="3080" width="160" height="40" as="geometry" />
        </mxCell>
        <mxCell id="yrHQgA5anK2MkfYK_7r1-278" value="แสดงผลเงินทอน&amp;nbsp;" style="rounded=0;whiteSpace=wrap;html=1;" parent="1" vertex="1">
          <mxGeometry x="620.5" y="3160" width="180" height="40" as="geometry" />
        </mxCell>
        <mxCell id="yrHQgA5anK2MkfYK_7r1-279" value="แสดงเงินในตู้ที่เหลือ" style="rounded=0;whiteSpace=wrap;html=1;" parent="1" vertex="1">
          <mxGeometry x="630.5" y="3244" width="160" height="40" as="geometry" />
        </mxCell>
        <mxCell id="yrHQgA5anK2MkfYK_7r1-280" style="edgeStyle=orthogonalEdgeStyle;rounded=0;html=1;exitX=0.5;exitY=1;entryX=0.5;entryY=0;" parent="1" edge="1">
          <mxGeometry relative="1" as="geometry">
            <mxPoint x="710" y="1140" as="sourcePoint" />
            <mxPoint x="710" y="1200" as="targetPoint" />
          </mxGeometry>
        </mxCell>
        <mxCell id="yrHQgA5anK2MkfYK_7r1-281" style="edgeStyle=orthogonalEdgeStyle;rounded=0;html=1;entryX=0.5;entryY=0;" parent="1" target="yrHQgA5anK2MkfYK_7r1-266" edge="1">
          <mxGeometry relative="1" as="geometry">
            <mxPoint x="700.5" y="1620" as="sourcePoint" />
          </mxGeometry>
        </mxCell>
        <mxCell id="yrHQgA5anK2MkfYK_7r1-282" value="เท็จ" style="edgeStyle=orthogonalEdgeStyle;rounded=0;html=1;exitX=1;exitY=0.5;entryX=0;entryY=0.5;" parent="1" source="yrHQgA5anK2MkfYK_7r1-267" target="yrHQgA5anK2MkfYK_7r1-268" edge="1">
          <mxGeometry relative="1" as="geometry" />
        </mxCell>
        <mxCell id="yrHQgA5anK2MkfYK_7r1-283" value="จริง" style="edgeStyle=orthogonalEdgeStyle;rounded=0;html=1;exitX=0.5;exitY=1;entryX=0.5;entryY=0;exitDx=0;exitDy=0;" parent="1" source="yrHQgA5anK2MkfYK_7r1-267" target="yrHQgA5anK2MkfYK_7r1-271" edge="1">
          <mxGeometry relative="1" as="geometry">
            <mxPoint x="730.5" y="2680" as="sourcePoint" />
          </mxGeometry>
        </mxCell>
        <mxCell id="yrHQgA5anK2MkfYK_7r1-284" style="edgeStyle=orthogonalEdgeStyle;rounded=0;html=1;exitX=0.5;exitY=1;entryX=0.5;entryY=0;" parent="1" source="yrHQgA5anK2MkfYK_7r1-271" target="yrHQgA5anK2MkfYK_7r1-272" edge="1">
          <mxGeometry relative="1" as="geometry" />
        </mxCell>
        <mxCell id="yrHQgA5anK2MkfYK_7r1-285" style="edgeStyle=orthogonalEdgeStyle;rounded=0;html=1;exitX=0.5;exitY=1;entryX=0.5;entryY=0;" parent="1" source="yrHQgA5anK2MkfYK_7r1-272" target="yrHQgA5anK2MkfYK_7r1-273" edge="1">
          <mxGeometry relative="1" as="geometry" />
        </mxCell>
        <mxCell id="yrHQgA5anK2MkfYK_7r1-286" value="เท็จ" style="edgeStyle=orthogonalEdgeStyle;rounded=0;html=1;exitX=1;exitY=0.5;entryX=0;entryY=0.5;" parent="1" source="yrHQgA5anK2MkfYK_7r1-273" target="yrHQgA5anK2MkfYK_7r1-275" edge="1">
          <mxGeometry relative="1" as="geometry" />
        </mxCell>
        <mxCell id="yrHQgA5anK2MkfYK_7r1-287" value="จริง" style="edgeStyle=orthogonalEdgeStyle;rounded=0;html=1;exitX=0.5;exitY=1;entryX=0.5;entryY=0;" parent="1" source="yrHQgA5anK2MkfYK_7r1-273" target="yrHQgA5anK2MkfYK_7r1-276" edge="1">
          <mxGeometry relative="1" as="geometry" />
        </mxCell>
        <mxCell id="yrHQgA5anK2MkfYK_7r1-288" style="edgeStyle=orthogonalEdgeStyle;rounded=0;html=1;exitX=0.5;exitY=1;entryX=0.5;entryY=0;" parent="1" source="yrHQgA5anK2MkfYK_7r1-276" target="yrHQgA5anK2MkfYK_7r1-277" edge="1">
          <mxGeometry relative="1" as="geometry" />
        </mxCell>
        <mxCell id="yrHQgA5anK2MkfYK_7r1-289" style="edgeStyle=orthogonalEdgeStyle;rounded=0;html=1;exitX=0.5;exitY=1;entryX=0.5;entryY=0;" parent="1" source="yrHQgA5anK2MkfYK_7r1-277" target="yrHQgA5anK2MkfYK_7r1-278" edge="1">
          <mxGeometry relative="1" as="geometry" />
        </mxCell>
        <mxCell id="yrHQgA5anK2MkfYK_7r1-290" style="edgeStyle=orthogonalEdgeStyle;rounded=0;html=1;exitX=0.5;exitY=1;entryX=0.5;entryY=0;" parent="1" source="yrHQgA5anK2MkfYK_7r1-278" target="yrHQgA5anK2MkfYK_7r1-279" edge="1">
          <mxGeometry relative="1" as="geometry" />
        </mxCell>
        <mxCell id="yrHQgA5anK2MkfYK_7r1-291" value="B1000 = L_money / 1000&lt;div&gt;L_money = L_money % 1000&lt;/div&gt;" style="whiteSpace=wrap;html=1;" parent="1" vertex="1">
          <mxGeometry x="610.5" y="1880" width="200" height="40" as="geometry" />
        </mxCell>
        <mxCell id="yrHQgA5anK2MkfYK_7r1-292" style="edgeStyle=orthogonalEdgeStyle;rounded=0;orthogonalLoop=1;jettySize=auto;html=1;entryX=0.5;entryY=0;entryDx=0;entryDy=0;" parent="1" source="yrHQgA5anK2MkfYK_7r1-293" target="yrHQgA5anK2MkfYK_7r1-295" edge="1">
          <mxGeometry relative="1" as="geometry" />
        </mxCell>
        <mxCell id="yrHQgA5anK2MkfYK_7r1-293" value="B500 = L_money / 500&lt;div&gt;L_money = L_money % 500&lt;/div&gt;" style="whiteSpace=wrap;html=1;" parent="1" vertex="1">
          <mxGeometry x="610.5" y="1980" width="200" height="40" as="geometry" />
        </mxCell>
        <mxCell id="yrHQgA5anK2MkfYK_7r1-294" style="edgeStyle=orthogonalEdgeStyle;rounded=0;orthogonalLoop=1;jettySize=auto;html=1;entryX=0.5;entryY=0;entryDx=0;entryDy=0;" parent="1" source="yrHQgA5anK2MkfYK_7r1-295" target="yrHQgA5anK2MkfYK_7r1-297" edge="1">
          <mxGeometry relative="1" as="geometry" />
        </mxCell>
        <mxCell id="yrHQgA5anK2MkfYK_7r1-295" value="B100 = L_money / 100&lt;div&gt;L_money = L_money % 100&lt;/div&gt;" style="whiteSpace=wrap;html=1;" parent="1" vertex="1">
          <mxGeometry x="610.5" y="2100" width="200" height="40" as="geometry" />
        </mxCell>
        <mxCell id="yrHQgA5anK2MkfYK_7r1-296" style="edgeStyle=orthogonalEdgeStyle;rounded=0;orthogonalLoop=1;jettySize=auto;html=1;entryX=0.5;entryY=0;entryDx=0;entryDy=0;" parent="1" source="yrHQgA5anK2MkfYK_7r1-297" target="yrHQgA5anK2MkfYK_7r1-299" edge="1">
          <mxGeometry relative="1" as="geometry" />
        </mxCell>
        <mxCell id="yrHQgA5anK2MkfYK_7r1-297" value="B50 = L_money / 50&lt;div&gt;L_money = L_money % 50&lt;/div&gt;" style="whiteSpace=wrap;html=1;" parent="1" vertex="1">
          <mxGeometry x="610.5" y="2190" width="200" height="40" as="geometry" />
        </mxCell>
        <mxCell id="yrHQgA5anK2MkfYK_7r1-298" style="edgeStyle=orthogonalEdgeStyle;rounded=0;orthogonalLoop=1;jettySize=auto;html=1;" parent="1" source="yrHQgA5anK2MkfYK_7r1-299" target="yrHQgA5anK2MkfYK_7r1-301" edge="1">
          <mxGeometry relative="1" as="geometry" />
        </mxCell>
        <mxCell id="yrHQgA5anK2MkfYK_7r1-299" value="B20 = L_money / 20&lt;div&gt;L_money = L_money % 20&lt;/div&gt;" style="whiteSpace=wrap;html=1;" parent="1" vertex="1">
          <mxGeometry x="610.5" y="2290" width="200" height="40" as="geometry" />
        </mxCell>
        <mxCell id="yrHQgA5anK2MkfYK_7r1-300" style="edgeStyle=orthogonalEdgeStyle;rounded=0;orthogonalLoop=1;jettySize=auto;html=1;entryX=0.5;entryY=0;entryDx=0;entryDy=0;" parent="1" source="yrHQgA5anK2MkfYK_7r1-301" target="yrHQgA5anK2MkfYK_7r1-302" edge="1">
          <mxGeometry relative="1" as="geometry" />
        </mxCell>
        <mxCell id="yrHQgA5anK2MkfYK_7r1-301" value="C10 = L_money / 10&lt;div&gt;L_money = L_money % 10&lt;/div&gt;" style="whiteSpace=wrap;html=1;" parent="1" vertex="1">
          <mxGeometry x="610.5" y="2380" width="200" height="40" as="geometry" />
        </mxCell>
        <mxCell id="yrHQgA5anK2MkfYK_7r1-302" value="C5 = L_money / 5&lt;div&gt;C1 = L_money % 5&lt;/div&gt;" style="whiteSpace=wrap;html=1;" parent="1" vertex="1">
          <mxGeometry x="610.5" y="2470" width="200" height="40" as="geometry" />
        </mxCell>
        <mxCell id="yrHQgA5anK2MkfYK_7r1-303" style="edgeStyle=orthogonalEdgeStyle;rounded=0;orthogonalLoop=1;jettySize=auto;html=1;exitX=0.5;exitY=1;exitDx=0;exitDy=0;entryX=0.452;entryY=0;entryDx=0;entryDy=0;entryPerimeter=0;" parent="1" source="yrHQgA5anK2MkfYK_7r1-266" edge="1">
          <mxGeometry relative="1" as="geometry">
            <mxPoint x="700.8999999999999" y="1770" as="targetPoint" />
          </mxGeometry>
        </mxCell>
        <mxCell id="yrHQgA5anK2MkfYK_7r1-304" style="edgeStyle=orthogonalEdgeStyle;rounded=0;orthogonalLoop=1;jettySize=auto;html=1;exitX=0.5;exitY=1;exitDx=0;exitDy=0;" parent="1" edge="1">
          <mxGeometry relative="1" as="geometry">
            <mxPoint x="699.98" y="1920" as="sourcePoint" />
            <mxPoint x="700.48" y="1980" as="targetPoint" />
          </mxGeometry>
        </mxCell>
        <mxCell id="yrHQgA5anK2MkfYK_7r1-305" style="edgeStyle=orthogonalEdgeStyle;rounded=0;orthogonalLoop=1;jettySize=auto;html=1;entryX=0.5;entryY=0;entryDx=0;entryDy=0;exitX=0.5;exitY=1;exitDx=0;exitDy=0;" parent="1" source="yrHQgA5anK2MkfYK_7r1-302" edge="1">
          <mxGeometry relative="1" as="geometry">
            <mxPoint x="710.0699999999999" y="2515" as="sourcePoint" />
            <mxPoint x="710.0699999999999" y="2555" as="targetPoint" />
          </mxGeometry>
        </mxCell>
        <mxCell id="yrHQgA5anK2MkfYK_7r1-306" value="&lt;br&gt;change == 0&lt;div&gt;&lt;br&gt;&lt;/div&gt;" style="rounded=0;whiteSpace=wrap;html=1;align=center;" parent="1" vertex="1">
          <mxGeometry x="620.5" y="1770" width="160" height="40" as="geometry" />
        </mxCell>
        <mxCell id="yrHQgA5anK2MkfYK_7r1-307" style="edgeStyle=orthogonalEdgeStyle;rounded=0;orthogonalLoop=1;jettySize=auto;html=1;exitX=0.5;exitY=1;exitDx=0;exitDy=0;" parent="1" edge="1">
          <mxGeometry relative="1" as="geometry">
            <mxPoint x="700.06" y="1810" as="sourcePoint" />
            <mxPoint x="700.5" y="1880" as="targetPoint" />
          </mxGeometry>
        </mxCell>
        <mxCell id="yrHQgA5anK2MkfYK_7r1-308" value="รับเงินจากลูกค้า = C_money" style="shape=parallelogram;perimeter=parallelogramPerimeter;whiteSpace=wrap;html=1;fixedSize=1;" parent="1" vertex="1">
          <mxGeometry x="650" y="1080" width="120" height="60" as="geometry" />
        </mxCell>
        <mxCell id="yrHQgA5anK2MkfYK_7r1-309" value="รวมราคาสินค้า =&lt;div&gt;&amp;nbsp;P_item&lt;/div&gt;" style="shape=parallelogram;perimeter=parallelogramPerimeter;whiteSpace=wrap;html=1;fixedSize=1;" parent="1" vertex="1">
          <mxGeometry x="650" y="1200" width="120" height="50" as="geometry" />
        </mxCell>
        <mxCell id="yrHQgA5anK2MkfYK_7r1-310" value="ไม่ต้องทอน =&lt;div&gt;change&lt;/div&gt;" style="shape=parallelogram;perimeter=parallelogramPerimeter;whiteSpace=wrap;html=1;fixedSize=1;" parent="1" vertex="1">
          <mxGeometry x="640.5" y="1430" width="120" height="60" as="geometry" />
        </mxCell>
        <mxCell id="yrHQgA5anK2MkfYK_7r1-311" style="edgeStyle=orthogonalEdgeStyle;rounded=0;html=1;exitX=0.5;exitY=1;entryX=0.5;entryY=0;" parent="1" edge="1">
          <mxGeometry relative="1" as="geometry">
            <mxPoint x="709.63" y="1250" as="sourcePoint" />
            <mxPoint x="709.63" y="1310" as="targetPoint" />
          </mxGeometry>
        </mxCell>
        <mxCell id="yrHQgA5anK2MkfYK_7r1-312" style="edgeStyle=orthogonalEdgeStyle;rounded=0;orthogonalLoop=1;jettySize=auto;html=1;entryX=0.5;entryY=0;entryDx=0;entryDy=0;" parent="1" target="yrHQgA5anK2MkfYK_7r1-270" edge="1">
          <mxGeometry relative="1" as="geometry">
            <mxPoint x="1010.5" y="2610" as="sourcePoint" />
          </mxGeometry>
        </mxCell>
        <mxCell id="yrHQgA5anK2MkfYK_7r1-313" value="" style="strokeWidth=2;html=1;shape=mxgraph.flowchart.start_2;whiteSpace=wrap;" parent="1" vertex="1">
          <mxGeometry x="1000.5" y="2590" width="20" height="20" as="geometry" />
        </mxCell>
        <mxCell id="yrHQgA5anK2MkfYK_7r1-314" style="edgeStyle=orthogonalEdgeStyle;rounded=0;orthogonalLoop=1;jettySize=auto;html=1;exitX=0.5;exitY=1;exitDx=0;exitDy=0;entryX=0.5;entryY=0;entryDx=0;entryDy=0;entryPerimeter=0;" parent="1" source="yrHQgA5anK2MkfYK_7r1-268" target="yrHQgA5anK2MkfYK_7r1-313" edge="1">
          <mxGeometry relative="1" as="geometry" />
        </mxCell>
        <mxCell id="yrHQgA5anK2MkfYK_7r1-315" value="" style="edgeStyle=orthogonalEdgeStyle;rounded=0;orthogonalLoop=1;jettySize=auto;html=1;" parent="1" source="yrHQgA5anK2MkfYK_7r1-316" target="yrHQgA5anK2MkfYK_7r1-266" edge="1">
          <mxGeometry relative="1" as="geometry" />
        </mxCell>
        <mxCell id="yrHQgA5anK2MkfYK_7r1-316" value="&lt;font&gt;&lt;br&gt;จำนวนธนบัตรต้อง&lt;/font&gt;&lt;div&gt;&lt;font&gt;ใช้ในการทอนเงิน&lt;/font&gt;&lt;/div&gt;&lt;div&gt;&lt;font&gt;= use&lt;br&gt;&lt;/font&gt;&lt;br&gt;&lt;/div&gt;" style="shape=parallelogram;perimeter=parallelogramPerimeter;whiteSpace=wrap;html=1;fixedSize=1;" parent="1" vertex="1">
          <mxGeometry x="640.5" y="1550" width="120" height="60" as="geometry" />
        </mxCell>
        <mxCell id="yrHQgA5anK2MkfYK_7r1-317" style="edgeStyle=orthogonalEdgeStyle;rounded=0;html=1;exitX=0.5;exitY=1;entryX=0.5;entryY=0;" parent="1" edge="1">
          <mxGeometry relative="1" as="geometry">
            <mxPoint x="700.23" y="1490" as="sourcePoint" />
            <mxPoint x="700.23" y="1550" as="targetPoint" />
          </mxGeometry>
        </mxCell>
        <mxCell id="yrHQgA5anK2MkfYK_7r1-318" style="edgeStyle=orthogonalEdgeStyle;rounded=0;orthogonalLoop=1;jettySize=auto;html=1;entryX=0.5;entryY=0;entryDx=0;entryDy=0;" parent="1" source="yrHQgA5anK2MkfYK_7r1-319" target="yrHQgA5anK2MkfYK_7r1-244" edge="1">
          <mxGeometry relative="1" as="geometry" />
        </mxCell>
        <mxCell id="yrHQgA5anK2MkfYK_7r1-319" value="" style="strokeWidth=2;html=1;shape=mxgraph.flowchart.start_2;whiteSpace=wrap;" parent="1" vertex="1">
          <mxGeometry x="700.5" y="3360" width="20" height="20" as="geometry" />
        </mxCell>
        <mxCell id="yrHQgA5anK2MkfYK_7r1-320" style="edgeStyle=orthogonalEdgeStyle;rounded=0;orthogonalLoop=1;jettySize=auto;html=1;exitX=0.5;exitY=1;exitDx=0;exitDy=0;entryX=0.5;entryY=0;entryDx=0;entryDy=0;entryPerimeter=0;" parent="1" source="yrHQgA5anK2MkfYK_7r1-279" target="yrHQgA5anK2MkfYK_7r1-319" edge="1">
          <mxGeometry relative="1" as="geometry" />
        </mxCell>
        <mxCell id="yrHQgA5anK2MkfYK_7r1-321" value="&lt;div&gt;เงินทอน=&lt;/div&gt;&lt;div&gt;&lt;span style=&quot;background-color: transparent; color: light-dark(rgb(0, 0, 0), rgb(255, 255, 255));&quot;&gt;L_money&lt;/span&gt;&lt;/div&gt;" style="shape=parallelogram;perimeter=parallelogramPerimeter;whiteSpace=wrap;html=1;fixedSize=1;" parent="1" vertex="1">
          <mxGeometry x="650" y="1310" width="120" height="60" as="geometry" />
        </mxCell>
        <mxCell id="yrHQgA5anK2MkfYK_7r1-322" style="edgeStyle=orthogonalEdgeStyle;rounded=0;html=1;exitX=0.5;exitY=1;entryX=0.5;entryY=0;" parent="1" edge="1">
          <mxGeometry relative="1" as="geometry">
            <mxPoint x="709.41" y="1370" as="sourcePoint" />
            <mxPoint x="709.41" y="1430" as="targetPoint" />
          </mxGeometry>
        </mxCell>
      </root>
    </mxGraphModel>
  </diagram>
</mxfile>
